<svg width="18" height="18" viewBox="0 0 18 18" fill="none" xmlns="http://www.w3.org/2000/svg">
<path fill-rule="evenodd" clip-rule="evenodd" d="M14.3333 1.55001C13.6553 1.55001 13.1056 2.09971 13.1056 2.77779C13.1056 3.45587 13.6553 4.00557 14.3333 4.00557C15.0114 4.00557 15.5611 3.45587 15.5611 2.77779C15.5611 2.09971 15.0114 1.55001 14.3333 1.55001ZM12.0709 2.22779C12.3181 1.20763 13.2372 0.450012 14.3333 0.450012C15.6189 0.450012 16.6611 1.49219 16.6611 2.77779C16.6611 4.06339 15.6189 5.10557 14.3333 5.10557C13.2372 5.10557 12.3181 4.34794 12.0709 3.32779H5.44446C4.76638 3.32779 4.21668 3.87748 4.21668 4.55557V7.7998L5.93079 5.95858C6.13777 5.73626 6.48579 5.72381 6.70811 5.93079C6.93044 6.13777 6.94288 6.48579 6.7359 6.70811L4.38351 9.23495C3.99242 9.65503 3.34094 9.65503 2.94986 9.23495L0.597459 6.70811C0.390482 6.48579 0.402924 6.13777 0.625249 5.93079C0.847575 5.72381 1.19559 5.73625 1.40257 5.95858L3.11668 7.7998V4.55557C3.11668 3.26997 4.15886 2.22779 5.44446 2.22779H12.0709ZM14.8833 10.2002L16.5975 12.0414C16.8044 12.2638 17.1525 12.2762 17.3748 12.0692C17.5971 11.8623 17.6095 11.5142 17.4026 11.2919L15.0502 8.76508C14.6591 8.34499 14.0076 8.34499 13.6165 8.76508L11.2641 11.2919C11.0571 11.5142 11.0696 11.8623 11.2919 12.0692C11.5142 12.2762 11.8623 12.2638 12.0692 12.0414L13.7833 10.2002V13.4445C13.7833 14.1225 13.2337 14.6722 12.5556 14.6722H5.9291C5.68197 13.6521 4.7628 12.8945 3.66668 12.8945C2.38108 12.8945 1.3389 13.9366 1.3389 15.2222C1.3389 16.5078 2.38108 17.55 3.66668 17.55C4.7628 17.55 5.68197 16.7924 5.9291 15.7722H12.5556C13.8412 15.7722 14.8833 14.7301 14.8833 13.4445V10.2002ZM3.66668 13.9945C2.9886 13.9945 2.4389 14.5442 2.4389 15.2222C2.4389 15.9003 2.9886 16.45 3.66668 16.45C4.34476 16.45 4.89446 15.9003 4.89446 15.2222C4.89446 14.5442 4.34476 13.9945 3.66668 13.9945Z" fill="#3C4242"/>
</svg>
