<svg width="18" height="18" viewBox="0 0 18 18" fill="none" xmlns="http://www.w3.org/2000/svg">
<path fill-rule="evenodd" clip-rule="evenodd" d="M4.91727 0.557674C5.24577 0.364061 5.67072 0.436517 5.91431 0.735611C7.49479 2.67626 10.5052 2.67626 12.0857 0.73561C12.3293 0.436518 12.7543 0.36406 13.0828 0.557675L16.3968 2.51092C17.2302 3.00211 17.679 3.94897 17.5175 4.90115L17.0006 7.94746C16.8452 8.86317 15.721 9.19788 15.074 8.56229C15.0674 8.55585 15.0628 8.55318 15.0606 8.55204C15.0582 8.55083 15.0558 8.55004 15.053 8.54956C15.0467 8.54849 15.036 8.54882 15.0239 8.55376C15.0117 8.55872 15.0059 8.56506 15.0044 8.56711C15.0039 8.56787 15.0037 8.56821 15.0036 8.56866L15.0036 8.56868C15.0035 8.56902 15.0024 8.5722 15.0024 8.57965V15.2147C15.0024 16.5137 13.9332 17.55 12.635 17.55H5.36507C4.06684 17.55 2.99759 16.5137 2.99759 15.2147V8.57965C2.99759 8.57221 2.99655 8.56903 2.99644 8.56868L2.99643 8.56866C2.99633 8.56835 2.99624 8.56809 2.996 8.5677C2.9959 8.56753 2.99578 8.56734 2.99561 8.56711C2.99414 8.56506 2.98835 8.55872 2.97617 8.55376C2.96402 8.54882 2.95332 8.54849 2.947 8.54956C2.94419 8.55004 2.94182 8.55083 2.93942 8.55204C2.93718 8.55318 2.9326 8.55585 2.92605 8.56229C2.27901 9.19788 1.1548 8.86317 0.99943 7.94746L0.482566 4.90115C0.321011 3.94897 0.769819 3.00211 1.60321 2.51092L4.91727 0.557674ZM5.24373 1.64211L2.16174 3.45858C1.71465 3.72208 1.48313 4.22241 1.56707 4.71715L2.08393 7.76346C2.08544 7.77235 2.0876 7.77468 2.08869 7.77585L2.08882 7.776C2.09138 7.77878 2.09775 7.78394 2.10866 7.78737C2.11956 7.79081 2.12929 7.7907 2.13575 7.78929C2.1402 7.78832 2.14626 7.78634 2.1552 7.77756C2.86012 7.08511 4.09759 7.55549 4.09759 8.57965V15.2147C4.09759 15.8877 4.65576 16.45 5.36507 16.45H12.635C13.3443 16.45 13.9024 15.8877 13.9024 15.2147V8.57965C13.9024 7.55549 15.1399 7.08511 15.8448 7.77756C15.8538 7.78634 15.8598 7.78832 15.8643 7.78929C15.8707 7.7907 15.8805 7.79081 15.8914 7.78737C15.9023 7.78394 15.9086 7.77878 15.9112 7.776C15.9122 7.77487 15.9145 7.77275 15.9161 7.76346L16.433 4.71715C16.5169 4.22241 16.2854 3.72208 15.8383 3.45858L12.7563 1.64211C10.7569 3.84076 7.24316 3.84076 5.24373 1.64211ZM12.5245 1.5055L12.5242 1.50533L12.6885 1.22655L12.5242 1.50533C12.5243 1.50538 12.5244 1.50544 12.5245 1.5055Z" fill="#3C4242"/>
</svg>
