<svg width="121" height="36" viewBox="0 0 121 36" fill="none" xmlns="http://www.w3.org/2000/svg">
<path d="M50.5246 10.0435L49.8746 8.44346H46.8546L46.2046 10.0435H45.4046L48.0746 3.54346H48.6546L51.3246 10.0435H50.5246ZM47.1346 7.74346H49.5846L48.3546 4.71346L47.1346 7.74346ZM52.9732 10.0435L51.1632 5.44346H51.9132L53.3332 9.05346L54.7632 5.44346H55.5132L53.6832 10.0435H52.9732ZM59.9833 5.44346H60.7133V10.0435H59.9833V9.21346C59.6333 9.76346 59.0533 10.1235 58.2733 10.1235C56.9633 10.1235 56.0333 9.11346 56.0333 7.74346C56.0333 6.36346 56.9633 5.37346 58.2733 5.37346C59.0533 5.37346 59.6333 5.72346 59.9833 6.27346V5.44346ZM58.3633 9.43346C59.3533 9.43346 59.9833 8.72346 59.9833 7.74346C59.9833 6.76346 59.3533 6.06346 58.3633 6.06346C57.3833 6.06346 56.7333 6.76346 56.7333 7.74346C56.7333 8.72346 57.3833 9.43346 58.3633 9.43346ZM62.4043 4.46346C62.1843 4.46346 61.9643 4.28346 61.9643 4.01346C61.9643 3.74346 62.1843 3.58346 62.4043 3.58346C62.6243 3.58346 62.8443 3.74346 62.8443 4.01346C62.8443 4.28346 62.6243 4.46346 62.4043 4.46346ZM62.7643 10.0435H62.0443V5.44346H62.7743L62.7643 10.0435ZM64.823 10.0435H64.103V3.54346H64.823V10.0435ZM69.8954 5.44346H70.6254V10.0435H69.8954V9.21346C69.5454 9.76346 68.9654 10.1235 68.1854 10.1235C66.8754 10.1235 65.9454 9.11346 65.9454 7.74346C65.9454 6.36346 66.8754 5.37346 68.1854 5.37346C68.9654 5.37346 69.5454 5.72346 69.8954 6.27346V5.44346ZM68.2754 9.43346C69.2654 9.43346 69.8954 8.72346 69.8954 7.74346C69.8954 6.76346 69.2654 6.06346 68.2754 6.06346C67.2954 6.06346 66.6454 6.76346 66.6454 7.74346C66.6454 8.72346 67.2954 9.43346 68.2754 9.43346ZM74.3064 5.37346C75.6164 5.37346 76.5564 6.36346 76.5564 7.74346C76.5564 9.11346 75.6164 10.1235 74.3064 10.1235C73.5264 10.1235 72.9464 9.76346 72.5964 9.21346V10.0435H71.8764V3.54346H72.5964V6.27346C72.9464 5.72346 73.5264 5.37346 74.3064 5.37346ZM74.2164 9.43346C75.1964 9.43346 75.8464 8.72346 75.8464 7.74346C75.8464 6.76346 75.1964 6.06346 74.2164 6.06346C73.2364 6.06346 72.5964 6.76346 72.5964 7.74346C72.5964 8.72346 73.2364 9.43346 74.2164 9.43346ZM78.3875 10.0435H77.6675V3.54346H78.3875V10.0435ZM81.7799 5.36346C83.0999 5.36346 83.9799 6.37346 83.9799 7.74346V7.97346H80.2099C80.2999 8.89346 80.9299 9.50346 81.8399 9.50346C82.5199 9.50346 82.9899 9.19346 83.2499 8.80346L83.7599 9.17346C83.3599 9.76346 82.6799 10.1335 81.8399 10.1335C80.4399 10.1335 79.5099 9.11346 79.5099 7.74346C79.5099 6.37346 80.3999 5.36346 81.7799 5.36346ZM81.7799 5.96346C80.8799 5.96346 80.3099 6.57346 80.2099 7.47346H83.3099C83.2099 6.60346 82.6399 5.96346 81.7799 5.96346ZM89.301 10.1335C87.921 10.1335 86.961 9.11346 86.961 7.74346C86.961 6.36346 87.921 5.36346 89.301 5.36346C90.681 5.36346 91.641 6.36346 91.641 7.74346C91.641 9.11346 90.681 10.1335 89.301 10.1335ZM89.301 9.43346C90.271 9.43346 90.911 8.71346 90.911 7.74346C90.911 6.77346 90.271 6.06346 89.301 6.06346C88.331 6.06346 87.681 6.77346 87.681 7.74346C87.681 8.71346 88.331 9.43346 89.301 9.43346ZM94.9553 5.37346C95.8753 5.37346 96.7853 5.91346 96.7853 7.21346V10.0435H96.0653V7.31346C96.0653 6.43346 95.4453 6.00346 94.7653 6.00346C94.0753 6.00346 93.4753 6.43346 93.4753 7.31346V10.0435H92.7553V5.44346H93.4753V6.06346C93.8253 5.58346 94.3853 5.37346 94.9553 5.37346ZM102.22 6.01346H101.12V8.84346C101.12 9.33346 101.42 9.45346 101.76 9.45346H102.17V10.0435H101.5C100.8 10.0435 100.39 9.64346 100.39 8.94346V6.01346H99.7503V5.44346H100.39V4.04346H101.12V5.44346H102.22V6.01346ZM105.414 5.37346C106.334 5.37346 107.244 5.91346 107.244 7.21346V10.0435H106.524V7.31346C106.524 6.43346 105.904 6.00346 105.224 6.00346C104.534 6.00346 103.934 6.43346 103.934 7.31346V10.0435H103.214V3.54346H103.934V6.06346C104.284 5.58346 104.844 5.37346 105.414 5.37346ZM110.637 5.36346C111.957 5.36346 112.837 6.37346 112.837 7.74346V7.97346H109.067C109.157 8.89346 109.787 9.50346 110.697 9.50346C111.377 9.50346 111.847 9.19346 112.107 8.80346L112.617 9.17346C112.217 9.76346 111.537 10.1335 110.697 10.1335C109.297 10.1335 108.367 9.11346 108.367 7.74346C108.367 6.37346 109.257 5.36346 110.637 5.36346ZM110.637 5.96346C109.737 5.96346 109.167 6.57346 109.067 7.47346H112.167C112.067 6.60346 111.497 5.96346 110.637 5.96346Z" fill="white"/>
<path d="M52.4718 31.1943L51.3018 28.3143H45.8658L44.6958 31.1943H43.2558L48.0618 19.4943H49.1058L53.9118 31.1943H52.4718ZM46.3698 27.0543H50.7798L48.5658 21.6003L46.3698 27.0543ZM59.8417 22.7883C62.1997 22.7883 63.8917 24.6063 63.8917 27.0723C63.8917 29.5563 62.1997 31.3383 59.8417 31.3383C58.4377 31.3383 57.3937 30.7083 56.7637 29.7003V34.5063H55.4677V22.9143H56.7637V24.4263C57.3937 23.4183 58.4377 22.7883 59.8417 22.7883ZM59.6797 30.0963C61.4437 30.0963 62.6137 28.8363 62.6137 27.0723C62.6137 25.3083 61.4437 24.0303 59.6797 24.0303C57.9157 24.0303 56.7637 25.3083 56.7637 27.0723C56.7637 28.8363 57.9157 30.0963 59.6797 30.0963ZM70.2655 22.7883C72.6235 22.7883 74.3155 24.6063 74.3155 27.0723C74.3155 29.5563 72.6235 31.3383 70.2655 31.3383C68.8615 31.3383 67.8175 30.7083 67.1875 29.7003V34.5063H65.8915V22.9143H67.1875V24.4263C67.8175 23.4183 68.8615 22.7883 70.2655 22.7883ZM70.1035 30.0963C71.8675 30.0963 73.0375 28.8363 73.0375 27.0723C73.0375 25.3083 71.8675 24.0303 70.1035 24.0303C68.3395 24.0303 67.1875 25.3083 67.1875 27.0723C67.1875 28.8363 68.3395 30.0963 70.1035 30.0963ZM79.5588 28.6923L80.6748 27.9543C81.0888 29.0523 82.5288 30.0423 84.4728 30.0423C86.4888 30.0423 87.3348 29.2863 87.3348 27.9363C87.3348 26.4063 85.0488 26.0463 83.9868 25.7403C82.8528 25.4343 79.9728 24.9483 79.9728 22.5363C79.9728 20.3403 81.8448 19.2963 84.3468 19.2963C86.5068 19.2963 88.2348 20.3403 88.6668 21.6183L87.5508 22.2843C87.2268 21.4203 85.8948 20.6463 84.2028 20.6463C82.4568 20.6463 81.5028 21.3303 81.5028 22.4823C81.5028 23.9223 83.5908 24.2283 84.7428 24.5343C85.7868 24.8403 88.8288 25.4523 88.8288 27.8823C88.8288 30.1863 87.1548 31.3923 84.3468 31.3923C81.8268 31.3923 80.1168 30.2223 79.5588 28.6923ZM94.6354 23.9403H92.6554V29.0343C92.6554 29.9163 93.1954 30.1323 93.8074 30.1323H94.5454V31.1943H93.3394C92.0794 31.1943 91.3414 30.4743 91.3414 29.2143V23.9403H90.1894V22.9143H91.3414V20.3943H92.6554V22.9143H94.6354V23.9403ZM99.9628 31.3563C97.4788 31.3563 95.7508 29.5203 95.7508 27.0543C95.7508 24.5703 97.4788 22.7703 99.9628 22.7703C102.447 22.7703 104.175 24.5703 104.175 27.0543C104.175 29.5203 102.447 31.3563 99.9628 31.3563ZM99.9628 30.0963C101.709 30.0963 102.861 28.8003 102.861 27.0543C102.861 25.3083 101.709 24.0303 99.9628 24.0303C98.2168 24.0303 97.0468 25.3083 97.0468 27.0543C97.0468 28.8003 98.2168 30.0963 99.9628 30.0963ZM107.477 24.4443C108.107 23.3103 109.223 22.8063 110.393 22.7883V24.0303C109.115 24.0483 107.477 24.7143 107.477 26.7303V31.1943H106.181V22.9143H107.477V24.4443ZM115.323 22.7703C117.699 22.7703 119.283 24.5883 119.283 27.0543V27.4683H112.497C112.659 29.1243 113.793 30.2223 115.431 30.2223C116.655 30.2223 117.501 29.6643 117.969 28.9623L118.887 29.6283C118.167 30.6903 116.943 31.3563 115.431 31.3563C112.911 31.3563 111.237 29.5203 111.237 27.0543C111.237 24.5883 112.839 22.7703 115.323 22.7703ZM115.323 23.8503C113.703 23.8503 112.677 24.9483 112.497 26.5683H118.077C117.897 25.0023 116.871 23.8503 115.323 23.8503Z" fill="white"/>
<path d="M18.9334 1.93115H3.02932C1.72644 1.93115 0.670654 2.9869 0.670654 4.28978V31.2009C0.670654 32.5038 1.72644 33.5596 3.02932 33.5596H18.9334C20.2363 33.5596 21.2921 32.5038 21.2921 31.2009V4.28978C21.2921 3.00937 20.2138 1.93115 18.9334 1.93115Z" fill="white"/>
<path d="M20.1466 5.72754H1.79395V27.9214H20.1466V5.72754Z" fill="#404040"/>
<path d="M14.7328 3.34619H7.20758C6.91556 3.34619 6.646 3.59329 6.646 3.90778C6.646 4.22226 6.89309 4.46936 7.20758 4.46936H14.7328C15.0249 4.46936 15.2944 4.22226 15.2944 3.90778C15.2944 3.61575 15.0473 3.34619 14.7328 3.34619Z" fill="#6639A6"/>
<path d="M9.18457 30.5944C9.18457 29.606 9.99326 28.7749 10.9816 28.7749C11.97 28.7749 12.8012 29.5836 12.8012 30.5944C12.8012 31.5828 11.9925 32.3915 10.9816 32.3915C9.99326 32.4139 9.18457 31.6053 9.18457 30.5944Z" fill="#6639A6"/>
</svg>
