<svg width="134" height="35" viewBox="0 0 134 35" fill="none" xmlns="http://www.w3.org/2000/svg">
<path d="M46.9269 5.59385H47.6569V10.1938H46.9269V9.36385C46.5769 9.91385 45.9969 10.2738 45.2169 10.2738C43.9069 10.2738 42.9769 9.26385 42.9769 7.89385C42.9769 6.51385 43.9069 5.52385 45.2169 5.52385C45.9969 5.52385 46.5769 5.87385 46.9269 6.42385V5.59385ZM45.3069 9.58385C46.2969 9.58385 46.9269 8.87385 46.9269 7.89385C46.9269 6.91385 46.2969 6.21385 45.3069 6.21385C44.3269 6.21385 43.6769 6.91385 43.6769 7.89385C43.6769 8.87385 44.3269 9.58385 45.3069 9.58385ZM51.1079 5.52385C52.0279 5.52385 52.9379 6.06385 52.9379 7.36385V10.1938H52.2179V7.46385C52.2179 6.58385 51.5979 6.15385 50.9179 6.15385C50.2279 6.15385 49.6279 6.58385 49.6279 7.46385V10.1938H48.9079V5.59385H49.6279V6.21385C49.9779 5.73385 50.5379 5.52385 51.1079 5.52385ZM58.0109 3.69385H58.7409V10.1938H58.0109V9.36385C57.6609 9.91385 57.0809 10.2738 56.3009 10.2738C54.9909 10.2738 54.0609 9.26385 54.0609 7.89385C54.0609 6.51385 54.9909 5.52385 56.3009 5.52385C57.0809 5.52385 57.6609 5.87385 58.0109 6.42385V3.69385ZM56.3909 9.58385C57.3809 9.58385 58.0109 8.87385 58.0109 7.89385C58.0109 6.91385 57.3809 6.21385 56.3909 6.21385C55.4109 6.21385 54.7609 6.91385 54.7609 7.89385C54.7609 8.87385 55.4109 9.58385 56.3909 9.58385ZM60.7119 6.44385C61.0619 5.81385 61.6819 5.53385 62.3319 5.52385V6.21385C61.6219 6.22385 60.7119 6.59385 60.7119 7.71385V10.1938H59.9919V5.59385H60.7119V6.44385ZM65.1411 10.2838C63.7611 10.2838 62.8011 9.26385 62.8011 7.89385C62.8011 6.51385 63.7611 5.51385 65.1411 5.51385C66.5211 5.51385 67.4811 6.51385 67.4811 7.89385C67.4811 9.26385 66.5211 10.2838 65.1411 10.2838ZM65.1411 9.58385C66.1111 9.58385 66.7511 8.86385 66.7511 7.89385C66.7511 6.92385 66.1111 6.21385 65.1411 6.21385C64.1711 6.21385 63.5211 6.92385 63.5211 7.89385C63.5211 8.86385 64.1711 9.58385 65.1411 9.58385ZM69.0354 4.61385C68.8154 4.61385 68.5954 4.43385 68.5954 4.16385C68.5954 3.89385 68.8154 3.73385 69.0354 3.73385C69.2554 3.73385 69.4754 3.89385 69.4754 4.16385C69.4754 4.43385 69.2554 4.61385 69.0354 4.61385ZM69.3954 10.1938H68.6754V5.59385H69.4054L69.3954 10.1938ZM74.5441 3.69385H75.2741V10.1938H74.5441V9.36385C74.1941 9.91385 73.6141 10.2738 72.8341 10.2738C71.5241 10.2738 70.5941 9.26385 70.5941 7.89385C70.5941 6.51385 71.5241 5.52385 72.8341 5.52385C73.6141 5.52385 74.1941 5.87385 74.5441 6.42385V3.69385ZM72.9241 9.58385C73.9141 9.58385 74.5441 8.87385 74.5441 7.89385C74.5441 6.91385 73.9141 6.21385 72.9241 6.21385C71.9441 6.21385 71.2941 6.91385 71.2941 7.89385C71.2941 8.87385 71.9441 9.58385 72.9241 9.58385ZM82.3371 5.59385H83.0671V10.1938H82.3371V9.36385C81.9871 9.91385 81.4071 10.2738 80.6271 10.2738C79.3171 10.2738 78.3871 9.26385 78.3871 7.89385C78.3871 6.51385 79.3171 5.52385 80.6271 5.52385C81.4071 5.52385 81.9871 5.87385 82.3371 6.42385V5.59385ZM80.7171 9.58385C81.7071 9.58385 82.3371 8.87385 82.3371 7.89385C82.3371 6.91385 81.7071 6.21385 80.7171 6.21385C79.7371 6.21385 79.0871 6.91385 79.0871 7.89385C79.0871 8.87385 79.7371 9.58385 80.7171 9.58385ZM86.7481 5.52385C88.0581 5.52385 88.9981 6.53385 88.9981 7.90385C88.9981 9.28385 88.0581 10.2738 86.7481 10.2738C85.9681 10.2738 85.3881 9.92385 85.0381 9.36385V12.0338H84.3181V5.59385H85.0381V6.43385C85.3881 5.87385 85.9681 5.52385 86.7481 5.52385ZM86.6581 9.58385C87.6381 9.58385 88.2881 8.88385 88.2881 7.90385C88.2881 6.92385 87.6381 6.21385 86.6581 6.21385C85.6781 6.21385 85.0381 6.92385 85.0381 7.90385C85.0381 8.88385 85.6781 9.58385 86.6581 9.58385ZM92.5391 5.52385C93.8491 5.52385 94.7891 6.53385 94.7891 7.90385C94.7891 9.28385 93.8491 10.2738 92.5391 10.2738C91.7591 10.2738 91.1791 9.92385 90.8291 9.36385V12.0338H90.1091V5.59385H90.8291V6.43385C91.1791 5.87385 91.7591 5.52385 92.5391 5.52385ZM92.4491 9.58385C93.4291 9.58385 94.0791 8.88385 94.0791 7.90385C94.0791 6.92385 93.4291 6.21385 92.4491 6.21385C91.4691 6.21385 90.8291 6.92385 90.8291 7.90385C90.8291 8.88385 91.4691 9.58385 92.4491 9.58385ZM100.102 10.2838C98.7221 10.2838 97.7621 9.26385 97.7621 7.89385C97.7621 6.51385 98.7221 5.51385 100.102 5.51385C101.482 5.51385 102.442 6.51385 102.442 7.89385C102.442 9.26385 101.482 10.2838 100.102 10.2838ZM100.102 9.58385C101.072 9.58385 101.712 8.86385 101.712 7.89385C101.712 6.92385 101.072 6.21385 100.102 6.21385C99.1321 6.21385 98.4821 6.92385 98.4821 7.89385C98.4821 8.86385 99.1321 9.58385 100.102 9.58385ZM105.756 5.52385C106.676 5.52385 107.586 6.06385 107.586 7.36385V10.1938H106.866V7.46385C106.866 6.58385 106.246 6.15385 105.566 6.15385C104.876 6.15385 104.276 6.58385 104.276 7.46385V10.1938H103.556V5.59385H104.276V6.21385C104.626 5.73385 105.186 5.52385 105.756 5.52385Z" fill="white"/>
<path d="M52.1248 25.3746C52.0168 28.7046 49.8928 31.0986 46.5088 31.0986C43.0348 31.0986 40.6588 28.5786 40.6588 25.1046C40.6588 21.6306 43.0348 19.1106 46.5088 19.1106C48.5788 19.1106 50.2348 20.0106 51.2428 21.4506L50.1268 22.2426C49.2988 21.0906 48.0028 20.4786 46.5088 20.4786C43.8268 20.4786 42.0088 22.4226 42.0088 25.1046C42.0088 27.7866 43.8268 29.7306 46.5088 29.7306C48.7228 29.7306 50.3608 28.3086 50.5948 26.0586H46.4548V24.7986H52.1248V25.3746ZM58.1757 31.1166C55.6917 31.1166 53.9637 29.2806 53.9637 26.8146C53.9637 24.3306 55.6917 22.5306 58.1757 22.5306C60.6597 22.5306 62.3877 24.3306 62.3877 26.8146C62.3877 29.2806 60.6597 31.1166 58.1757 31.1166ZM58.1757 29.8566C59.9217 29.8566 61.0737 28.5606 61.0737 26.8146C61.0737 25.0686 59.9217 23.7906 58.1757 23.7906C56.4297 23.7906 55.2597 25.0686 55.2597 26.8146C55.2597 28.5606 56.4297 29.8566 58.1757 29.8566ZM68.3535 31.1166C65.8695 31.1166 64.1415 29.2806 64.1415 26.8146C64.1415 24.3306 65.8695 22.5306 68.3535 22.5306C70.8375 22.5306 72.5655 24.3306 72.5655 26.8146C72.5655 29.2806 70.8375 31.1166 68.3535 31.1166ZM68.3535 29.8566C70.0995 29.8566 71.2515 28.5606 71.2515 26.8146C71.2515 25.0686 70.0995 23.7906 68.3535 23.7906C66.6075 23.7906 65.4375 25.0686 65.4375 26.8146C65.4375 28.5606 66.6075 29.8566 68.3535 29.8566ZM81.4292 22.6746H82.7432V30.3426C82.7432 32.7186 81.0512 34.3746 78.3872 34.3746C76.9472 34.3746 75.7232 33.8166 74.9672 32.9166L75.8492 32.1786C76.5152 32.9166 77.4332 33.2406 78.3872 33.2406C79.9172 33.2406 81.4292 32.3226 81.4292 30.3426V29.4606C80.7992 30.4506 79.7552 31.0986 78.3512 31.0986C75.9932 31.0986 74.3192 29.2806 74.3192 26.8146C74.3192 24.3486 75.9932 22.5486 78.3512 22.5486C79.7552 22.5486 80.7992 23.1786 81.4292 24.1686V22.6746ZM78.5132 29.8566C80.2772 29.8566 81.4292 28.5786 81.4292 26.8146C81.4292 25.0506 80.2772 23.7906 78.5132 23.7906C76.7492 23.7906 75.5792 25.0506 75.5792 26.8146C75.5792 28.5786 76.7492 29.8566 78.5132 29.8566ZM86.291 30.9546H84.995V19.2546H86.291V30.9546ZM92.3974 22.5306C94.7734 22.5306 96.3574 24.3486 96.3574 26.8146V27.2286H89.5714C89.7334 28.8846 90.8674 29.9826 92.5054 29.9826C93.7294 29.9826 94.5754 29.4246 95.0434 28.7226L95.9614 29.3886C95.2414 30.4506 94.0174 31.1166 92.5054 31.1166C89.9854 31.1166 88.3114 29.2806 88.3114 26.8146C88.3114 24.3486 89.9134 22.5306 92.3974 22.5306ZM92.3974 23.6106C90.7774 23.6106 89.7514 24.7086 89.5714 26.3286H95.1514C94.9714 24.7626 93.9454 23.6106 92.3974 23.6106ZM107.249 19.2546C109.013 19.2546 110.597 20.6586 110.597 22.8186C110.597 24.9786 109.013 26.3826 107.249 26.3826H103.325V30.9546H101.975V19.2546H107.249ZM107.051 25.0686C108.311 25.0686 109.229 24.0786 109.229 22.8186C109.229 21.5766 108.329 20.5866 107.051 20.5866H103.325V25.0686H107.051ZM113.783 30.9546H112.487V19.2546H113.783V30.9546ZM122.914 22.6746H124.228V30.9546H122.914V29.4606C122.284 30.4506 121.24 31.0986 119.836 31.0986C117.478 31.0986 115.804 29.2806 115.804 26.8146C115.804 24.3306 117.478 22.5486 119.836 22.5486C121.24 22.5486 122.284 23.1786 122.914 24.1686V22.6746ZM119.998 29.8566C121.78 29.8566 122.914 28.5786 122.914 26.8146C122.914 25.0506 121.78 23.7906 119.998 23.7906C118.234 23.7906 117.064 25.0506 117.064 26.8146C117.064 28.5786 118.234 29.8566 119.998 29.8566ZM132.185 22.6746H133.535L128.927 34.2666H127.649L128.945 30.9366L125.705 22.6746H127.055L129.611 29.1546L132.185 22.6746Z" fill="white"/>
<path d="M0.670654 33.3127V0.336426L30.3224 16.3528L0.670654 33.3127Z" fill="#5CA9B3"/>
<path d="M0.670654 0.336426L21.6515 21.3172L30.3224 16.3528L0.670654 0.336426Z" fill="#C8DB9B"/>
<path d="M21.4718 11.5679L0.670654 33.3125L30.3224 16.3526L21.4718 11.5679Z" fill="#AC5067"/>
<path d="M21.6517 21.317L30.3225 16.3526L21.4719 11.5679L16.7996 16.4649L21.6517 21.317Z" fill="#F4A676"/>
</svg>
