<svg width="20" height="24" viewBox="0 0 20 24" fill="none" xmlns="http://www.w3.org/2000/svg">
<path d="M2.31244 23.5C1.9287 23.4993 1.55176 23.3987 1.21869 23.2081C0.468691 22.7831 0.00244141 21.9581 0.00244141 21.0625V2.93749C0.00244141 2.03936 0.468691 1.21686 1.21869 0.791863C1.55969 0.595886 1.94708 0.495104 2.34035 0.500052C2.73363 0.504999 3.11835 0.615495 3.45432 0.819988L18.9449 10.0925C19.2678 10.2949 19.5339 10.576 19.7184 10.9094C19.9029 11.2429 19.9997 11.6177 19.9997 11.9987C19.9997 12.3798 19.9029 12.7546 19.7184 13.088C19.5339 13.4214 19.2678 13.7026 18.9449 13.905L3.45182 23.18C3.108 23.3878 2.7142 23.4984 2.31244 23.5Z" fill="white"/>
</svg>
