<svg width="32" height="32" viewBox="0 0 32 32" fill="none" xmlns="http://www.w3.org/2000/svg">
<path d="M22.0005 8.99892C21.9068 9.09189 21.8324 9.20249 21.7817 9.32435C21.7309 9.44621 21.7047 9.57691 21.7047 9.70892C21.7047 9.84094 21.7309 9.97164 21.7817 10.0935C21.8324 10.2154 21.9068 10.326 22.0005 10.4189L26.6005 15.0189H3.06055C2.79533 15.0189 2.54098 15.1243 2.35344 15.3118C2.1659 15.4994 2.06055 15.7537 2.06055 16.0189C2.06055 16.2841 2.1659 16.5385 2.35344 16.726C2.54098 16.9136 2.79533 17.0189 3.06055 17.0189H26.5805L22.0005 21.5889C21.8143 21.7763 21.7098 22.0297 21.7098 22.2939C21.7098 22.5581 21.8143 22.8116 22.0005 22.9989C22.1879 23.1852 22.4414 23.2897 22.7055 23.2897C22.9697 23.2897 23.2232 23.1852 23.4105 22.9989L29.7705 16.6389C29.8561 16.5568 29.9243 16.4582 29.9708 16.3491C30.0173 16.24 30.0413 16.1226 30.0413 16.0039C30.0413 15.8853 30.0173 15.7679 29.9708 15.6588C29.9243 15.5496 29.8561 15.4511 29.7705 15.3689L23.4205 8.99892C23.3276 8.90519 23.217 8.8308 23.0951 8.78003C22.9733 8.72926 22.8426 8.70313 22.7105 8.70312C22.5785 8.70313 22.4478 8.72926 22.326 8.78003C22.2041 8.8308 22.0935 8.90519 22.0005 8.99892Z" fill="#8B8EC2"/>
</svg>
