<svg width="18" height="18" viewBox="0 0 18 18" fill="none" xmlns="http://www.w3.org/2000/svg">
<path d="M17.0527 5.60939C16.6145 4.56354 15.977 3.61294 15.1758 2.81056C14.3769 2.00679 13.428 1.36774 12.3828 0.929706C11.3121 0.478791 10.1617 0.247652 8.99999 0.250018H8.96093C7.77929 0.255877 6.63671 0.490252 5.56054 0.95119C4.52435 1.39372 3.58431 2.0339 2.79296 2.83596C1.99946 3.63653 1.36927 4.58381 0.93749 5.62502C0.489277 6.70776 0.262166 7.86921 0.269521 9.04103C0.275381 10.3965 0.599599 11.7422 1.20507 12.9453V15.9141C1.20507 16.4102 1.60741 16.8125 2.10155 16.8125H5.0664C6.27513 17.4224 7.60899 17.7434 8.96288 17.75H9.0039C10.1719 17.75 11.3027 17.5235 12.3691 17.0801C13.409 16.6473 14.3544 16.0157 15.1523 15.2207C15.957 14.4219 16.5898 13.4883 17.0332 12.4473C17.4922 11.3692 17.7266 10.2227 17.7324 9.03908C17.7363 7.84963 17.5058 6.69533 17.0527 5.60939ZM5.10155 9.93752C4.58593 9.93752 4.16601 9.5176 4.16601 9.00002C4.16601 8.48244 4.58593 8.06252 5.10155 8.06252C5.61718 8.06252 6.0371 8.48244 6.0371 9.00002C6.0371 9.5176 5.61913 9.93752 5.10155 9.93752ZM8.99999 9.93752C8.48436 9.93752 8.06444 9.5176 8.06444 9.00002C8.06444 8.48244 8.48436 8.06252 8.99999 8.06252C9.51561 8.06252 9.93554 8.48244 9.93554 9.00002C9.93554 9.5176 9.51561 9.93752 8.99999 9.93752ZM12.8984 9.93752C12.3828 9.93752 11.9629 9.5176 11.9629 9.00002C11.9629 8.48244 12.3828 8.06252 12.8984 8.06252C13.4141 8.06252 13.834 8.48244 13.834 9.00002C13.834 9.5176 13.4141 9.93752 12.8984 9.93752Z" fill="#079DD9"/>
</svg>
