<svg width="36" height="36" viewBox="0 0 36 36" fill="none" xmlns="http://www.w3.org/2000/svg">
<path d="M17.9084 5.30508C17.7064 5.37645 13.9227 6.69875 9.49615 8.23516C5.07329 9.77534 1.37044 11.0751 1.26758 11.1202C0.90758 11.2855 0.709212 11.5334 0.74962 11.7588C0.779008 11.909 0.988396 12.1194 1.23084 12.2434C1.3337 12.2922 2.27411 12.6341 3.32472 12.9984C4.37533 13.3666 5.24595 13.6746 5.26431 13.6859C5.28268 13.6971 5.19084 13.8174 5.06227 13.9563C4.23574 14.8391 3.75819 15.9022 3.58187 17.2583C3.5488 17.4987 3.51207 18.0209 3.50105 18.4153L3.47901 19.1291L3.27329 19.2418C2.65615 19.5723 2.27044 20.365 2.38431 21.075C2.41003 21.2215 2.47615 21.4469 2.53493 21.5783C2.65248 21.8413 2.97574 22.2094 3.18146 22.3221L3.3137 22.3935L3.28799 22.6001C3.24023 22.9908 3.04554 23.8773 2.8986 24.3769C2.41738 25.9772 1.52105 27.6489 0.334518 29.1627L0.00390625 29.5872L0.158192 29.715C0.452069 29.9591 1.24921 30.4888 1.58717 30.6616C1.77084 30.7555 2.07207 30.8907 2.2484 30.9621L2.57533 31.0898L2.85819 30.9433C4.24309 30.2258 5.0035 28.9336 5.21656 26.9389C5.31574 26.011 5.30472 25.0418 5.17248 22.972L5.1284 22.2733L5.33778 22.0592C5.87778 21.4994 5.99166 20.6843 5.63533 19.9593C5.58023 19.8503 5.42595 19.6512 5.27901 19.5085L5.02187 19.253L5.04758 18.8323C5.17248 16.7925 5.74554 15.4139 6.87329 14.4447L7.04227 14.2982L7.35084 14.4071C7.51982 14.4672 9.89289 15.2937 12.6186 16.2441C15.348 17.1982 17.7688 18.0434 18.0002 18.1261C18.2317 18.2125 18.4815 18.2801 18.5513 18.2801C18.621 18.2801 18.8451 18.22 19.0472 18.1449C19.2492 18.0735 19.9104 17.8368 20.5166 17.6227C21.1227 17.4086 22.0815 17.0705 22.6472 16.8714C27.0994 15.3012 28.7378 14.7227 30.1043 14.2418C34.2884 12.773 35.3096 12.4049 35.5117 12.3072C35.8606 12.1307 36.0406 11.879 35.9855 11.6498C35.9451 11.4921 35.688 11.2704 35.4015 11.1502C35.2545 11.0901 31.6729 9.81666 27.441 8.32532C23.2092 6.83398 19.4659 5.51169 19.1206 5.39148C18.779 5.26751 18.4484 5.16984 18.3859 5.16984C18.3272 5.16984 18.1104 5.22995 17.9084 5.30508Z" fill="black"/>
<path d="M17.9084 5.30508C17.7064 5.37645 13.9227 6.69875 9.49615 8.23516C5.07329 9.77534 1.37044 11.0751 1.26758 11.1202C0.90758 11.2855 0.709212 11.5334 0.74962 11.7588C0.779008 11.909 0.988396 12.1194 1.23084 12.2434C1.3337 12.2922 2.27411 12.6341 3.32472 12.9984C4.37533 13.3666 5.24595 13.6746 5.26431 13.6859C5.28268 13.6971 5.19084 13.8174 5.06227 13.9563C4.23574 14.8391 3.75819 15.9022 3.58187 17.2583C3.5488 17.4987 3.51207 18.0209 3.50105 18.4153L3.47901 19.1291L3.27329 19.2418C2.65615 19.5723 2.27044 20.365 2.38431 21.075C2.41003 21.2215 2.47615 21.4469 2.53493 21.5783C2.65248 21.8413 2.97574 22.2094 3.18146 22.3221L3.3137 22.3935L3.28799 22.6001C3.24023 22.9908 3.04554 23.8773 2.8986 24.3769C2.41738 25.9772 1.52105 27.6489 0.334518 29.1627L0.00390625 29.5872L0.158192 29.715C0.452069 29.9591 1.24921 30.4888 1.58717 30.6616C1.77084 30.7555 2.07207 30.8907 2.2484 30.9621L2.57533 31.0898L2.85819 30.9433C4.24309 30.2258 5.0035 28.9336 5.21656 26.9389C5.31574 26.011 5.30472 25.0418 5.17248 22.972L5.1284 22.2733L5.33778 22.0592C5.87778 21.4994 5.99166 20.6843 5.63533 19.9593C5.58023 19.8503 5.42595 19.6512 5.27901 19.5085L5.02187 19.253L5.04758 18.8323C5.17248 16.7925 5.74554 15.4139 6.87329 14.4447L7.04227 14.2982L7.35084 14.4071C7.51982 14.4672 9.89289 15.2937 12.6186 16.2441C15.348 17.1982 17.7688 18.0434 18.0002 18.1261C18.2317 18.2125 18.4815 18.2801 18.5513 18.2801C18.621 18.2801 18.8451 18.22 19.0472 18.1449C19.2492 18.0735 19.9104 17.8368 20.5166 17.6227C21.1227 17.4086 22.0815 17.0705 22.6472 16.8714C27.0994 15.3012 28.7378 14.7227 30.1043 14.2418C34.2884 12.773 35.3096 12.4049 35.5117 12.3072C35.8606 12.1307 36.0406 11.879 35.9855 11.6498C35.9451 11.4921 35.688 11.2704 35.4015 11.1502C35.2545 11.0901 31.6729 9.81666 27.441 8.32532C23.2092 6.83398 19.4659 5.51169 19.1206 5.39148C18.779 5.26751 18.4484 5.16984 18.3859 5.16984C18.3272 5.16984 18.1104 5.22995 17.9084 5.30508Z" fill="url(#paint0_linear_346_2700)"/>
<path d="M26.2289 18.2435C23.8963 19.0699 21.244 20.0053 20.333 20.3284C19.3706 20.6665 18.6249 20.9106 18.5477 20.9106C18.4742 20.9106 18.151 20.8167 17.8314 20.7003C17.1481 20.4561 7.34731 17.0414 7.32527 17.0414C7.31792 17.0414 7.31057 18.8896 7.31057 21.1473C7.31057 25.6514 7.30323 25.4823 7.53098 25.8843C8.97466 28.4462 16.3253 29.9225 23.033 29.0022C25.733 28.634 27.9812 27.8978 29.3073 26.9474C29.7996 26.598 30.2587 26.0571 30.4314 25.6288C30.5085 25.4372 30.5085 25.4072 30.5196 21.0872C30.5232 18.698 30.5159 16.7409 30.5012 16.7446C30.4828 16.7446 28.5616 17.4208 26.2289 18.2435Z" fill="black"/>
<path d="M26.2289 18.2435C23.8963 19.0699 21.244 20.0053 20.333 20.3284C19.3706 20.6665 18.6249 20.9106 18.5477 20.9106C18.4742 20.9106 18.151 20.8167 17.8314 20.7003C17.1481 20.4561 7.34731 17.0414 7.32527 17.0414C7.31792 17.0414 7.31057 18.8896 7.31057 21.1473C7.31057 25.6514 7.30323 25.4823 7.53098 25.8843C8.97466 28.4462 16.3253 29.9225 23.033 29.0022C25.733 28.634 27.9812 27.8978 29.3073 26.9474C29.7996 26.598 30.2587 26.0571 30.4314 25.6288C30.5085 25.4372 30.5085 25.4072 30.5196 21.0872C30.5232 18.698 30.5159 16.7409 30.5012 16.7446C30.4828 16.7446 28.5616 17.4208 26.2289 18.2435Z" fill="url(#paint1_linear_346_2700)"/>
<defs>
<linearGradient id="paint0_linear_346_2700" x1="25.3615" y1="11.9444" x2="11.6729" y2="30.9517" gradientUnits="userSpaceOnUse">
<stop stop-color="#75D8AB"/>
<stop offset="1" stop-color="#39AA77"/>
</linearGradient>
<linearGradient id="paint1_linear_346_2700" x1="23.663" y1="20.0202" x2="17.828" y2="30.8264" gradientUnits="userSpaceOnUse">
<stop stop-color="#75D8AB"/>
<stop offset="1" stop-color="#39AA77"/>
</linearGradient>
</defs>
</svg>
