<svg width="36" height="30" viewBox="0 0 36 30" fill="none" xmlns="http://www.w3.org/2000/svg">
<path d="M17.4868 0.796874C16.9032 0.902343 16.2633 1.24687 15.8204 1.71094L15.4126 2.13281H10.8141H6.20865L5.89927 2.29453C5.44927 2.53359 5.18209 2.94844 5.14693 3.46875C5.10474 4.05937 5.17505 4.33359 5.4563 4.69922C5.59693 4.88203 5.6813 5.05781 5.64615 5.10703C5.61802 5.15625 4.39459 7.11797 2.92505 9.48047C1.46255 11.8359 0.19693 13.868 0.126617 13.9875C5.46114e-05 14.1984 5.46114e-05 14.2195 0.147711 14.6906C0.885992 17.1023 2.89693 18.9023 5.30865 19.3242C6.4899 19.5281 7.5024 19.4437 8.66959 19.05C10.6383 18.375 12.143 16.8281 12.804 14.8031C12.9657 14.2898 12.9868 14.1703 12.9094 14.0508C12.8602 13.9734 11.8477 12.2789 10.6524 10.2891C9.46412 8.29922 8.30396 6.35859 8.07896 5.97891L7.67115 5.29687H11.5524L15.4336 5.30391L15.7008 5.6625L15.961 6.02812V15.7453V25.4695L12.6774 25.4906L9.38677 25.5117L8.97193 25.7156C8.40943 25.9898 8.36724 26.1164 8.36724 27.4242C8.36724 28.6828 8.43052 28.8586 8.9649 29.1328L9.31646 29.3086H18.1758H27.0352L27.3586 29.1609C27.9493 28.8867 27.9563 28.8586 28.0055 27.5437C28.0618 26.1094 28.0266 25.9969 27.429 25.7086L27.0352 25.5117L23.5407 25.4906L20.0391 25.4695V15.7312V6L20.3063 5.64844L20.5665 5.30391H24.4477L28.329 5.29687L25.861 9.42422C24.504 11.7023 23.3016 13.6992 23.1961 13.868L23.0063 14.1773L23.1399 14.6414C23.7868 16.9125 25.5727 18.6141 27.9844 19.268C28.6735 19.4508 30.4243 19.4367 31.1626 19.2328C33.4196 18.6141 35.1633 16.9266 35.8524 14.6906C36.0001 14.2195 36.0001 14.1984 35.8735 13.9875C35.8032 13.868 34.5376 11.8359 33.0751 9.48047C31.6055 7.11797 30.3821 5.15625 30.354 5.10703C30.3188 5.05781 30.4032 4.88203 30.5438 4.69922C30.8251 4.33359 30.8954 4.05937 30.8532 3.46875C30.818 2.94844 30.5508 2.53359 30.1008 2.29453L29.7915 2.13281H25.1719H20.5454L20.2922 1.82344C19.6665 1.05 18.4852 0.621093 17.4868 0.796874ZM8.8524 10.1766C10.0969 12.2437 11.1305 13.9805 11.1516 14.0437C11.1938 14.1492 10.779 14.1562 6.50396 14.1562C2.60162 14.1562 1.82115 14.1422 1.84927 14.0648C1.88443 13.9664 6.56021 6.42187 6.58834 6.42187C6.59537 6.42187 7.6149 8.10937 8.8524 10.1766ZM34.1508 14.0648C34.179 14.1422 33.3563 14.1562 29.4961 14.1562C25.3196 14.1562 24.8133 14.1422 24.8485 14.0508C24.8836 13.9594 28.9547 7.125 29.2993 6.57656C29.3977 6.41484 29.4751 6.52734 31.7602 10.1906C33.054 12.2719 34.1297 14.0086 34.1508 14.0648Z" fill="url(#paint0_linear_5917_18)"/>
<defs>
<linearGradient id="paint0_linear_5917_18" x1="25.3497" y1="8.21988" x2="9.86327" y2="27.7098" gradientUnits="userSpaceOnUse">
<stop stop-color="#FFB800"/>
<stop offset="1" stop-color="#FF7A00"/>
</linearGradient>
</defs>
</svg>
