<svg width="33" height="32" viewBox="0 0 33 32" fill="none" xmlns="http://www.w3.org/2000/svg">
<path d="M31.4282 4.94725C31.0114 4.52886 30.5161 4.19689 29.9707 3.97037C29.4254 3.74385 28.8406 3.62725 28.2501 3.62725C27.6595 3.62725 27.0748 3.74385 26.5294 3.97037C25.984 4.19689 25.4887 4.52886 25.0719 4.94725C24.7851 5.22535 24.5389 5.54254 24.3407 5.88943L20.3751 4.80662C20.3848 3.91293 20.1281 3.0366 19.6379 2.28933C19.1476 1.54206 18.4459 0.957699 17.6223 0.610741C16.7986 0.263784 15.8903 0.169945 15.0131 0.341186C14.136 0.512426 13.3296 0.94099 12.697 1.57225C12.0194 2.24822 11.5749 3.12262 11.4283 4.06843C11.2816 5.01424 11.4403 5.98218 11.8813 6.83162L7.11414 11.1207C6.24799 10.5483 5.21056 10.293 4.1777 10.3981C3.14484 10.5032 2.18009 10.9622 1.44695 11.6972C1.02857 12.114 0.696594 12.6093 0.470076 13.1547C0.243557 13.7001 0.126953 14.2848 0.126953 14.8754C0.126953 15.4659 0.243557 16.0507 0.470076 16.596C0.696594 17.1414 1.02857 17.6367 1.44695 18.0535C1.86217 18.4741 2.35712 18.8077 2.90283 19.0346C3.44854 19.2616 4.03405 19.3775 4.62508 19.3754C5.66485 19.3767 6.67321 19.0191 7.47977 18.3629L17.3235 25.5769C16.9971 26.3946 16.9177 27.2901 17.0952 28.1524C17.2726 29.0148 17.6992 29.8062 18.3219 30.4285C18.7387 30.8469 19.234 31.1789 19.7794 31.4054C20.3248 31.6319 20.9095 31.7485 21.5001 31.7485C22.0906 31.7485 22.6754 31.6319 23.2207 31.4054C23.7661 31.1789 24.2614 30.8469 24.6782 30.4285C25.0966 30.0117 25.4286 29.5164 25.6551 28.971C25.8816 28.4257 25.9982 27.8409 25.9982 27.2504C25.9982 26.6598 25.8816 26.0751 25.6551 25.5297C25.4286 24.9843 25.0966 24.489 24.6782 24.0722C24.4715 23.8693 24.2507 23.6813 24.0173 23.5097L27.8563 12.6113H28.2501C28.8411 12.6134 29.4266 12.4976 29.9723 12.2706C30.518 12.0436 31.013 11.71 31.4282 11.2894C32.2689 10.4482 32.7412 9.30762 32.7412 8.11834C32.7412 6.92906 32.2689 5.78845 31.4282 4.94725V4.94725ZM14.286 3.16131C14.6005 2.8461 15.0014 2.63126 15.438 2.544C15.8746 2.45675 16.3273 2.50099 16.7387 2.67112C17.1502 2.84126 17.5019 3.12964 17.7494 3.49977C17.9968 3.8699 18.1289 4.30513 18.1289 4.75037C18.1289 5.19561 17.9968 5.63084 17.7494 6.00097C17.5019 6.3711 17.1502 6.65949 16.7387 6.82962C16.3273 6.99976 15.8746 7.044 15.438 6.95674C15.0014 6.86948 14.6005 6.65465 14.286 6.33943C14.076 6.13152 13.9092 5.88403 13.7954 5.61128C13.6817 5.33852 13.6231 5.04591 13.6231 4.75037C13.6231 4.45483 13.6817 4.16222 13.7954 3.88947C13.9092 3.61671 14.076 3.36922 14.286 3.16131ZM3.03602 16.4644C2.82598 16.2565 2.65924 16.009 2.54545 15.7363C2.43166 15.4635 2.37307 15.1709 2.37307 14.8754C2.37307 14.5798 2.43166 14.2872 2.54545 14.0145C2.65924 13.7417 2.82598 13.4942 3.03602 13.2863C3.35047 12.9711 3.75137 12.7563 4.18797 12.669C4.62458 12.5817 5.07726 12.626 5.48871 12.7961C5.90016 12.9663 6.25189 13.2546 6.49936 13.6248C6.74683 13.9949 6.87893 14.4301 6.87893 14.8754C6.87893 15.3206 6.74683 15.7558 6.49936 16.126C6.25189 16.4961 5.90016 16.7845 5.48871 16.9546C5.07726 17.1248 4.62458 17.169 4.18797 17.0817C3.75137 16.9945 3.35047 16.7796 3.03602 16.4644ZM23.0891 28.8394C22.6611 29.2272 22.1004 29.4356 21.523 29.4214C20.9456 29.4072 20.3958 29.1715 19.9874 28.7631C19.579 28.3547 19.3433 27.8048 19.3291 27.2275C19.3148 26.6501 19.5232 26.0893 19.911 25.6613C20.339 25.2735 20.8998 25.0651 21.4772 25.0793C22.0546 25.0936 22.6044 25.3293 23.0128 25.7377C23.4212 26.1461 23.6569 26.6959 23.6711 27.2733C23.6853 27.8507 23.4769 28.4114 23.0891 28.8394V28.8394ZM21.8938 22.7644C20.7228 22.6659 19.5589 23.0236 18.6454 23.7629L8.80164 16.5488C9.04003 15.946 9.14703 15.2992 9.11551 14.6517C9.08398 14.0042 8.91465 13.3709 8.61883 12.7941L13.386 8.50506C14.1258 8.98981 14.9906 9.24878 15.8751 9.25037C16.4661 9.25246 17.0516 9.13662 17.5973 8.90965C18.143 8.68267 18.638 8.34911 19.0532 7.9285C19.3401 7.65039 19.5862 7.33321 19.7845 6.98631L23.7501 8.06912C23.7404 8.66959 23.8526 9.26577 24.0798 9.82168C24.307 10.3776 24.6445 10.8817 25.0719 11.3035C25.2786 11.5065 25.4995 11.6945 25.7329 11.866L21.8938 22.7644ZM29.8391 9.71443C29.4111 10.1022 28.8504 10.3106 28.273 10.2964C27.6956 10.2822 27.1458 10.0465 26.7374 9.63807C26.329 9.22966 26.0933 8.67985 26.0791 8.10246C26.0648 7.52506 26.2732 6.96432 26.661 6.53631C26.8657 6.31044 27.1141 6.12851 27.3912 6.00155C27.6683 5.87459 27.9683 5.80526 28.273 5.79776C28.5777 5.79025 28.8807 5.84474 29.1638 5.95791C29.4468 6.07107 29.7038 6.24056 29.9194 6.45609C30.1349 6.67161 30.3044 6.92868 30.4175 7.21169C30.5307 7.4947 30.5852 7.79775 30.5777 8.10246C30.5702 8.40716 30.5009 8.70717 30.3739 8.98426C30.2469 9.26136 30.065 9.50978 29.8391 9.71443Z" fill="url(#paint0_linear_5917_40)"/>
<defs>
<linearGradient id="paint0_linear_5917_40" x1="16.4341" y1="0.257812" x2="16.4341" y2="31.7485" gradientUnits="userSpaceOnUse">
<stop stop-color="#FF824D"/>
<stop offset="0.541667" stop-color="#FF6D4D"/>
<stop offset="1" stop-color="#FF784D"/>
</linearGradient>
</defs>
</svg>
