<svg width="36" height="36" viewBox="0 0 36 36" fill="none" xmlns="http://www.w3.org/2000/svg">
<path d="M18 3V12C18 12.7956 18.3161 13.5587 18.8787 14.1213C19.4413 14.6839 20.2044 15 21 15H30V30C30 30.7956 29.6839 31.5587 29.1213 32.1213C28.5587 32.6839 27.7956 33 27 33H9C8.20435 33 7.44129 32.6839 6.87868 32.1213C6.31607 31.5587 6 30.7956 6 30V6C6 5.20435 6.31607 4.44129 6.87868 3.87868C7.44129 3.31607 8.20435 3 9 3H18ZM20.25 3.75V12C20.25 12.1989 20.329 12.3897 20.4697 12.5303C20.6103 12.671 20.8011 12.75 21 12.75H29.25L20.25 3.75Z" fill="black"/>
<path d="M18 3V12C18 12.7956 18.3161 13.5587 18.8787 14.1213C19.4413 14.6839 20.2044 15 21 15H30V30C30 30.7956 29.6839 31.5587 29.1213 32.1213C28.5587 32.6839 27.7956 33 27 33H9C8.20435 33 7.44129 32.6839 6.87868 32.1213C6.31607 31.5587 6 30.7956 6 30V6C6 5.20435 6.31607 4.44129 6.87868 3.87868C7.44129 3.31607 8.20435 3 9 3H18ZM20.25 3.75V12C20.25 12.1989 20.329 12.3897 20.4697 12.5303C20.6103 12.671 20.8011 12.75 21 12.75H29.25L20.25 3.75Z" fill="url(#paint0_linear_346_2704)"/>
<defs>
<linearGradient id="paint0_linear_346_2704" x1="22.9091" y1="25.1591" x2="6.61197" y2="12.1214" gradientUnits="userSpaceOnUse">
<stop stop-color="#7DC0FD"/>
<stop offset="1" stop-color="#5F9AD0"/>
</linearGradient>
</defs>
</svg>
