<svg width="34" height="34" viewBox="0 0 34 34" fill="none" xmlns="http://www.w3.org/2000/svg">
<path d="M22.2731 13.7276C21.1685 13.7276 20.2731 12.8322 20.2731 11.7276V2.63672C20.2731 1.53215 19.3777 0.636719 18.2731 0.636719H15.7276C14.6231 0.636719 13.7276 1.53215 13.7276 2.63672V11.7276C13.7276 12.8322 12.8322 13.7276 11.7276 13.7276H2.63672C1.53215 13.7276 0.636719 14.6231 0.636719 15.7276V18.2731C0.636719 19.3777 1.53215 20.2731 2.63672 20.2731H11.7276C12.8322 20.2731 13.7276 21.1685 13.7276 22.2731V31.364C13.7276 32.4686 14.6231 33.364 15.7276 33.364H18.2731C19.3777 33.364 20.2731 32.4686 20.2731 31.364V22.2731C20.2731 21.1685 21.1685 20.2731 22.2731 20.2731H31.364C32.4686 20.2731 33.364 19.3777 33.364 18.2731V15.7276C33.364 14.6231 32.4686 13.7276 31.364 13.7276H22.2731Z" fill="url(#paint0_linear_5917_12)"/>
<defs>
<linearGradient id="paint0_linear_5917_12" x1="17.0004" y1="0.636719" x2="17.0004" y2="33.364" gradientUnits="userSpaceOnUse">
<stop stop-color="#FF71A4"/>
<stop offset="1" stop-color="#EE3175"/>
</linearGradient>
</defs>
</svg>
