<svg width="18" height="12" viewBox="0 0 18 12" fill="none" xmlns="http://www.w3.org/2000/svg">
<path d="M17.6231 1.8828C17.5212 1.51945 17.3227 1.19049 17.0487 0.930891C16.7669 0.66331 16.4216 0.471903 16.0453 0.374737C14.637 0.00371678 8.99475 0.00371686 8.99475 0.00371686C6.64257 -0.0230321 4.29096 0.0946163 1.9532 0.355998C1.57689 0.460343 1.23222 0.656027 0.949835 0.925645C0.672372 1.19248 0.471399 1.52152 0.366414 1.88205C0.114217 3.24002 -0.00831698 4.61886 0.000462825 6C-0.00853596 7.37989 0.113698 8.75828 0.366414 10.1179C0.46915 10.477 0.669373 10.8045 0.947585 11.0691C1.2258 11.3337 1.57225 11.5248 1.9532 11.626C3.38026 11.9963 8.99475 11.9963 8.99475 11.9963C11.3499 12.0231 13.7045 11.9054 16.0453 11.644C16.4216 11.5468 16.7669 11.3554 17.0487 11.0878C17.3226 10.8283 17.5209 10.4993 17.6223 10.1359C17.8811 8.77849 18.007 7.39907 17.998 6.01723C18.0175 4.62955 17.8918 3.24363 17.6231 1.88205V1.8828ZM7.20099 8.5664V3.43434L11.8954 6.00075L7.20099 8.5664Z" fill="#595A7E"/>
</svg>
