<svg width="28" height="23" viewBox="0 0 28 23" fill="none" xmlns="http://www.w3.org/2000/svg">
<path d="M14.7593 0.536297C14.6713 0.43079 14.5612 0.345909 14.4368 0.28766C14.3123 0.229411 14.1766 0.199219 14.0393 0.199219C13.9019 0.199219 13.7662 0.229411 13.6418 0.28766C13.5173 0.345909 13.4072 0.43079 13.3193 0.536297C11.3674 2.88005 7.50301 5.67005 5.27926 6.9113C5.15282 6.98211 5.04452 7.08127 4.96286 7.20099C4.8812 7.32071 4.82841 7.45773 4.80863 7.6013L3.03113 20.4994H1.78613C1.53749 20.4994 1.29904 20.5982 1.12322 20.774C0.947405 20.9498 0.848633 21.1883 0.848633 21.4369C0.848633 21.6856 0.947405 21.924 1.12322 22.0998C1.29904 22.2756 1.53749 22.3744 1.78613 22.3744H26.1874C26.436 22.3744 26.6745 22.2756 26.8503 22.0998C27.0261 21.924 27.1249 21.6856 27.1249 21.4369C27.1249 21.1883 27.0261 20.9498 26.8503 20.774C26.6745 20.5982 26.436 20.4994 26.1874 20.4994H25.0493L23.2718 7.6013C23.2518 7.45756 23.1987 7.32043 23.1167 7.20069C23.0347 7.08096 22.926 6.98189 22.7993 6.9113C20.5774 5.67005 16.713 2.88005 14.7593 0.536297ZM10.1449 20.4994C11.4499 18.5738 12.7886 16.1157 14.0055 12.3582C15.1118 15.7613 16.3418 18.1857 17.868 20.4994H10.143H10.1449Z" fill="#595A7E"/>
</svg>
