<svg width="20.000000" height="20.000000" viewBox="0 0 20 20" fill="none" xmlns="http://www.w3.org/2000/svg" xmlns:xlink="http://www.w3.org/1999/xlink">
	<desc>
			Created with Pixso.
	</desc>
	<defs/>
	<path id="vector" d="M20 10.22C20 9.39 19.93 8.79 19.78 8.17L10.2 8.17L10.2 11.88L15.82 11.88C15.71 12.81 15.1 14.19 13.74 15.13L13.72 15.25L16.75 17.55L16.96 17.57C18.88 15.83 20 13.26 20 10.22Z" fill="#4285F4" fill-opacity="1.000000" fill-rule="nonzero"/>
	<path id="vector" d="M10.2 20C12.95 20 15.27 19.11 16.96 17.57L13.74 15.13C12.87 15.72 11.72 16.13 10.2 16.13C7.5 16.13 5.21 14.38 4.39 11.97L4.27 11.98L1.12 14.37L1.08 14.48C2.76 17.75 6.21 20 10.2 20Z" fill="#34A853" fill-opacity="1.000000" fill-rule="nonzero"/>
	<path id="vector" d="M4.39 11.97C4.18 11.35 4.05 10.68 4.05 10C4.05 9.31 4.18 8.64 4.38 8.02L4.38 7.88L1.19 5.46L1.08 5.51C0.39 6.86 0 8.38 0 10C0 11.61 0.39 13.13 1.08 14.48L4.39 11.97Z" fill="#FBBC05" fill-opacity="1.000000" fill-rule="nonzero"/>
	<path id="vector" d="M10.2 3.86C12.11 3.86 13.41 4.67 14.14 5.35L17.02 2.59C15.25 0.98 12.95 0 10.2 0C6.21 0 2.76 2.24 1.08 5.51L4.38 8.02C5.21 5.61 7.5 3.86 10.2 3.86Z" fill="#EB4335" fill-opacity="1.000000" fill-rule="nonzero"/>
</svg>
