<svg width="267" height="289" viewBox="0 0 267 289" fill="none" xmlns="http://www.w3.org/2000/svg">
<path d="M245.225 177.338C220.76 169.338 194.652 167.748 169.397 172.721L169.818 171.183C169.919 170.842 169.386 170.649 169.261 170.982L168.431 172.91C122.861 181.929 81.2091 210.319 52.1869 247.754C65.4298 221.991 80.291 197.092 96.6812 173.208C96.7492 173.165 96.8079 173.11 96.8539 173.044C96.8998 172.978 96.9321 172.904 96.9487 172.826C106.146 159.456 115.819 146.431 125.968 133.752C126.104 133.945 126.299 134.089 126.523 134.165C126.747 134.24 126.989 134.243 127.215 134.172C192.642 117.275 246.076 65.8191 266.619 1.65902C266.662 1.46128 266.652 1.25567 266.591 1.0629C266.529 0.870121 266.418 0.696932 266.268 0.560718C266.118 0.424476 265.936 0.330015 265.738 0.286796C265.54 0.243564 265.335 0.253097 265.142 0.31445C246.166 5.57267 227.084 10.5726 208.116 15.9723C203.441 17.3109 198.841 18.8994 194.336 20.731C194.255 20.1065 194.198 19.4905 194.059 18.7909C193.92 18.0914 193.253 18.2974 193.285 18.8218L193.378 21.0192C182.472 25.3087 172.567 31.7992 164.28 40.0859C164.168 38.8122 164.08 37.5469 163.943 36.2648C163.886 35.8152 163.212 35.838 163.227 36.2875C163.28 37.9022 163.309 39.5086 163.329 41.0982C154.798 50.2104 147.785 60.6327 142.558 71.9676L142.463 70.3943C142.452 70.3222 142.414 70.2569 142.358 70.2106C142.302 70.1643 142.23 70.1403 142.157 70.1431C142.084 70.146 142.015 70.1755 141.963 70.226C141.91 70.2766 141.878 70.3447 141.872 70.4174L141.821 73.5798C133.491 91.7549 128.567 111.813 124.669 131.134C114.922 143.116 105.609 155.429 96.7307 168.073C96.7602 166.625 96.7314 165.185 96.6694 163.762C103.946 141.938 104.421 118.419 98.0306 96.3203C89.1798 65.9152 63.9029 45.2372 52.0172 16.5869L51.9203 15.6378C51.9173 15.603 51.9034 15.5701 51.8807 15.5435C51.8579 15.517 51.8275 15.4983 51.7936 15.4899C51.7597 15.4816 51.724 15.484 51.6916 15.4969C51.6591 15.5098 51.6315 15.5325 51.6126 15.5619L50.8695 13.687C50.787 13.4523 50.6391 13.2461 50.4431 13.0929C50.2472 12.9396 50.0114 12.8457 49.7638 12.8221C49.5162 12.7986 49.2669 12.8464 49.0456 12.96C48.8243 13.0736 48.6402 13.2482 48.5149 13.4632C43.0503 25.0059 39.997 37.5418 39.5418 50.3046C39.0865 63.0674 41.2389 75.789 45.8673 87.6917C51.0677 101.232 58.7353 113.632 66.2949 125.94C74.9726 139.999 83.7171 153.984 92.6616 167.869C92.5022 168.259 92.3762 168.633 92.2335 169.016C91.6966 170.362 93.4492 171.467 94.2434 170.346L94.5742 171.012C83.0311 187.638 72.2659 204.784 62.2787 222.452C67.9228 206.149 69.444 188.277 64.1529 171.79C59.8426 158.369 51.3151 146.832 43.4283 135.33L36.2539 124.888C36.4068 124.729 36.5235 124.539 36.596 124.331C36.6685 124.123 36.695 123.902 36.6739 123.683C36.62 122.276 35.5058 121.956 34.4066 122.169L17.6058 97.6812L17.5093 96.6073C17.4978 96.5302 17.4598 96.4596 17.4018 96.4076C17.3438 96.3555 17.2696 96.3253 17.1917 96.3221C17.1139 96.3189 17.0374 96.3429 16.9754 96.39C16.9134 96.4371 16.8697 96.5044 16.8519 96.5802L16.0897 95.4626C15.9563 95.2693 15.7702 95.1183 15.5536 95.0275C15.337 94.9368 15.0988 94.91 14.8675 94.9504C14.6361 94.9909 14.4212 95.0968 14.2481 95.2557C14.0751 95.4146 13.9513 95.6197 13.8914 95.8468C11.0505 104.693 8.55881 113.629 6.41641 122.655L5.84408 122.046C5.421 121.612 4.8446 122.292 5.22607 122.726L6.16319 123.778C4.65255 130.406 3.2749 137.093 2.11382 143.714C-0.185083 157.506 -1.03256 170.245 4.34395 183.386C4.80642 184.528 5.31889 185.645 5.8479 186.795C5.54782 186.944 5.48783 187.493 5.87021 187.636L6.29408 187.82C11.8777 199.034 18.7066 209.583 26.6516 219.268C32.1395 226.144 39.0065 233.747 47.5275 236.812C48.6789 238.154 50.2462 239.073 51.9801 239.422L51.6955 239.937C51.5582 240.145 51.5062 240.398 51.5504 240.643C51.5946 240.888 51.7315 241.106 51.9327 241.253C44.2185 255.965 37.1109 270.951 30.6101 286.211C29.889 287.898 32.4232 289.237 33.1776 287.534C37.7432 277.195 42.5387 266.971 47.5641 256.861L48.8177 255.2C48.9888 255.29 49.1804 255.333 49.3733 255.324C49.5662 255.316 49.7535 255.257 49.9164 255.154C50.3999 254.914 50.8337 254.574 51.3007 254.301C71.7181 264.136 94.8127 261.612 115.52 253.438C115.659 253.401 115.79 253.336 115.903 253.248C121.373 251.101 126.694 248.594 131.831 245.741C150.165 235.338 166.172 221.456 183.205 209.184C199.679 196.953 218.146 187.665 237.788 181.734C238.852 181.871 239.959 181.924 240.949 182.119C241.057 182.129 241.166 182.1 241.254 182.036C241.342 181.972 241.404 181.878 241.428 181.772C241.452 181.666 241.436 181.554 241.384 181.459C241.331 181.363 241.246 181.29 241.143 181.254C240.852 181.169 240.561 181.127 240.253 181.051C241.936 180.59 243.652 180.155 245.359 179.744C246.634 179.382 246.281 177.666 245.225 177.338ZM177.184 110.319C171.757 108.799 166.125 108.143 160.495 108.377C155.617 108.719 149.565 111.721 145.088 111.574L144.78 111.54C151.596 103.866 158.563 96.3725 165.682 89.0601C178.268 88.0282 190.937 88.9468 203.242 91.7835C195.05 98.6293 186.338 104.827 177.184 110.319ZM260.183 13.0572C248.293 43.0414 229.201 69.6354 204.594 90.4894C204.543 90.3675 204.462 90.2602 204.359 90.1771C204.256 90.094 204.134 90.0377 204.005 90.0132C192.85 87.1272 181.311 86.0096 169.809 86.7012C169.027 86.7569 168.286 86.8545 167.62 86.9356C175.802 78.7221 184.147 70.67 192.655 62.7794C204.36 61.7926 214.906 63.9148 226.256 67.1132C227.038 67.3487 227.491 66.1267 226.752 65.7665C221.529 63.3901 215.974 61.8234 210.279 61.1205C207.243 60.6948 198.901 61.5923 194.759 60.8635C204.296 52.1716 214.016 43.7077 223.918 35.4719C231.945 34.255 240.096 34.0653 248.171 34.9076C249.303 35.011 249.699 33.2978 248.551 33.161C241.169 32.3471 233.715 32.4382 226.354 33.4323C238.309 23.5828 250.526 13.97 263.006 4.5938C263.415 6.96702 261.114 10.7881 260.216 13.1239L260.183 13.0572ZM248.583 7.17822C250.158 6.75042 261.481 2.52501 262.402 3.37681L262.543 3.66022C247.877 13.1939 233.723 23.4947 220.142 34.5196L219.068 34.7409C221.818 28.1008 223.533 21.0778 224.152 13.9173C232.332 11.7016 240.487 9.47744 248.616 7.24491L248.583 7.17822ZM220.928 14.7893C221.728 14.5588 222.536 14.345 223.336 14.1145C222.36 21.4902 220.272 28.6754 217.143 35.4256C217.089 35.5319 217.06 35.6495 217.059 35.769C217.058 35.8885 217.085 36.0065 217.138 36.1136C217.191 36.2206 217.269 36.3137 217.365 36.3853C217.46 36.4569 217.571 36.5051 217.689 36.5259C208.956 43.628 200.441 51.0303 192.144 58.733C191.623 54.8364 194.567 45.0667 194.876 42.0466C195.414 35.7312 195.331 29.3781 194.628 23.0788C203.245 19.8477 212.037 17.1024 220.962 14.856L220.928 14.7893ZM169.271 38.3373C176.387 31.9672 184.585 26.9224 193.478 23.4414C193.994 36.122 192.707 48.8115 189.656 61.1304C180.741 69.4581 172.064 78.0279 163.625 86.8398C163.226 86.4864 162.907 86.0512 162.69 85.5637C162.473 85.0763 162.364 84.5479 162.369 84.0145C161.565 77.6202 164.422 69.1819 164.776 62.525C165.107 56.0719 165.055 49.6049 164.62 43.158C166.132 41.5565 167.71 40.0052 169.346 38.4873L169.271 38.3373ZM163.352 44.2858C163.575 59.1168 162.324 73.9331 159.617 88.5166C159.589 88.6533 159.592 88.7946 159.626 88.93C159.659 89.0654 159.723 89.1915 159.812 89.2989C159.902 89.4063 160.014 89.4922 160.141 89.5504C160.268 89.6085 160.406 89.6373 160.546 89.6347L161.003 89.5946C154.629 96.288 148.433 103.087 142.413 109.993C141.952 108.518 142.616 106.215 142.682 103.918C142.826 100.565 142.953 97.2193 143.005 93.8489C143.089 88.323 143.04 82.78 142.857 77.3032C147.838 65.2799 154.79 54.1717 163.426 44.4359L163.352 44.2858ZM141.793 79.805C141.617 90.5488 141.367 101.267 140.709 112.001C135.987 117.474 131.342 122.963 126.775 128.469L126.558 128.743C130.946 112.337 135.268 95.5056 141.793 79.805ZM128.775 130.282C133.145 124.936 137.614 119.665 142.149 114.528C152.499 109.98 164.05 108.933 175.049 111.544C160.224 120.18 144.341 126.858 127.798 131.41L128.775 130.282ZM96.0989 157.293C95.0781 150.161 93.272 143.164 90.7134 136.428C90.8377 136.476 90.9719 136.491 91.1037 136.474C91.2356 136.457 91.361 136.406 91.4687 136.328C91.5763 136.25 91.6628 136.146 91.7203 136.026C91.7778 135.906 91.8044 135.774 91.7978 135.641C92.242 121.461 93.618 107.4 94.4949 93.2548C101.322 113.978 101.88 136.255 96.0989 157.293ZM93.0265 89.1222L93.604 90.7469C91.8394 103.144 90.7719 115.63 90.4066 128.147C90.273 130.934 89.911 132.256 89.2853 132.712C85.2558 122.621 80.1683 112.826 75.4633 103.173C74.0574 100.339 72.7847 97.4807 71.5784 94.7138C73.9152 84.7259 76.942 74.998 80.1519 65.2625C85.3396 72.6985 89.6592 80.7038 93.0265 89.1222ZM79.4068 64.0118C77.8411 67.8629 76.4085 71.7589 75.1088 75.6997C74.2687 78.1938 72.052 89.6802 70.1738 91.4636C65.5934 80.4437 61.8756 69.0848 59.0539 57.4893C61.2646 53.1935 63.4254 48.8809 65.6029 44.5601C70.1432 51.0327 74.9335 57.4229 79.4068 64.0118ZM64.6416 43.2504L60.2946 51.992C59.7167 53.172 59.2048 54.4853 58.5438 55.6234C56.1065 45.2988 54.2501 34.8457 52.9832 24.3132C56.4441 30.8777 60.3389 37.2042 64.6416 43.2504ZM49.7426 17.4036C50.3786 18.937 51.0812 20.4372 51.8006 21.9292C52.2257 34.0165 53.9088 46.0267 56.8226 57.7652C56.2068 57.4325 55.6419 57.0131 55.1453 56.5199C50.6546 52.7855 46.8917 47.88 42.8272 43.5811C43.7819 34.558 46.082 25.7287 49.6511 17.3867L49.7426 17.4036ZM42.6987 44.7459C47.343 49.9205 52.2292 54.9128 56.9068 60.0708C56.9709 60.1349 57.0511 60.1805 57.1389 60.2028C57.2267 60.225 57.319 60.2231 57.4058 60.1972C60.1106 70.658 63.5889 80.9034 67.8121 90.8486C64.4897 88.7575 58.7306 83.4712 57.4271 82.4767C53.3249 79.5675 49.0722 76.8992 44.7191 74.4054C42.4225 64.6914 41.7093 54.6702 42.6072 44.7289L42.6987 44.7459ZM66.2555 122.594C60.5359 113.084 55.3787 103.247 50.8103 93.1336C48.4986 87.9294 46.6308 82.5391 45.2268 77.0202C53.7349 82.0779 61.7743 87.8855 69.2491 94.3736L69.9934 95.874C75.4482 107.959 81.7195 119.722 86.5915 131.888C85.4371 131.11 84.0174 130.007 82.2644 129.028C77.4222 126.375 72.3719 124.122 67.1637 122.289C67.0848 122.246 66.9977 122.219 66.9081 122.211C66.8184 122.203 66.7281 122.214 66.6427 122.243C66.5574 122.271 66.479 122.317 66.4123 122.378C66.3457 122.438 66.2923 122.512 66.2555 122.594ZM67.1992 124.203C74.3228 126.782 81.1237 130.177 87.466 134.321C91.1366 143.439 93.4775 153.038 94.4169 162.822C94.0387 163.986 93.6523 165.134 93.2409 166.273C84.821 152.273 75.6434 138.42 67.2242 124.212L67.1992 124.203ZM36.4318 129.183C44.2271 140.668 52.9635 151.914 58.7992 164.599C60.7273 168.811 62.2139 173.211 63.2353 177.73C57.1513 180.474 51.6925 184.433 47.1944 189.364C45.258 191.533 43.5183 193.87 41.9958 196.347C40.582 198.648 39.5755 203.779 37.7059 205.455C37.4725 205.57 37.3388 205.761 37.1802 205.902C36.7437 204.436 36.3981 203.195 36.093 202.287C32.8618 192.395 30.0526 182.391 27.6654 172.274C27.7696 172.249 27.8676 172.203 27.9536 172.139C28.0395 172.075 28.1118 171.994 28.166 171.901C33.2395 162.363 40.1826 156.426 48.6998 150.103C49.1332 149.888 48.828 149.021 48.278 149.253C39.7771 153.054 35.0367 159.872 29.2891 166.753C27.9273 168.405 27.4757 169.086 26.8684 169.034L26.7278 168.751C24.8811 160.547 23.4173 152.32 22.2281 144.102C22.2281 144.102 22.2281 144.102 22.3115 144.061C23.0898 142.698 31.03 129.349 33.5398 125.196L36.4318 129.183ZM32.4221 123.361C30.3513 125.51 28.7893 129.941 27.4168 132.367C26.6468 133.746 23.8967 140.179 21.9623 141.305C20.197 128.408 19.0311 115.463 18.0153 102.401L32.4221 123.361ZM15.5547 98.8648L16.8802 100.783C16.8166 113.557 17.6831 126.319 19.4729 138.967C18.7443 137.791 18.0572 136.615 17.8914 136.407C16.715 134.705 15.4968 133.045 14.2119 131.418C12.4298 129.124 10.5306 127.012 8.53181 124.826C10.5289 116.121 12.856 107.481 15.5129 98.9063L15.5547 98.8648ZM5.17554 178.321C0.625234 164.457 3.36691 150.135 6.07406 136.203C6.72555 132.826 7.44359 129.458 8.19484 126.115C12.4746 131.043 16.3752 136.289 19.8635 141.806C21.1095 150.474 22.7385 159.076 24.6092 167.579L24.219 167.295C22.1099 165.765 20.3355 163.654 18.2269 161.958C14.1029 158.489 9.74736 155.306 5.19063 152.429C4.73381 152.136 4.20703 152.917 4.6305 153.226C11.8305 158.518 18.6972 164.248 25.1913 170.386C25.9711 173.8 26.7677 177.207 27.6309 180.58C29.7429 189.109 32.2465 197.506 34.9917 205.804C34.3784 204.954 33.7227 204.135 33.027 203.351C30.2805 200.402 27.2505 197.73 23.9806 195.374C19.3832 192.097 14.3377 189.5 8.9994 187.662C7.50914 184.641 6.23142 181.519 5.17554 178.321ZM25.2719 213.43C19.5367 205.758 14.369 197.678 9.80999 189.254C20.3161 193.756 29.4815 200.894 36.4183 209.978C37.7957 213.927 39.2065 217.86 40.7255 221.76C41.9185 225.564 43.3267 229.297 44.943 232.942C37.2352 227.711 30.5652 221.095 25.2719 213.43ZM38.1348 209.334C39.979 202.814 43.2002 196.766 47.581 191.597C51.9619 186.428 57.4004 182.258 63.5298 179.37C67.4707 199.082 62.7032 219.79 53.0681 237.512C46.4392 236.167 41.2142 219.855 38.1761 209.418L38.1348 209.334ZM200.674 172.329L193.684 179.847C182.488 181.895 171.516 185.021 160.922 189.182C161.762 186.688 164.827 183.526 166.041 181.158C167.038 179.21 167.89 177.19 168.59 175.116C179.182 173.132 189.949 172.232 200.724 172.429L200.674 172.329ZM183.866 205.45C183.836 205.325 183.78 205.209 183.702 205.108C183.623 205.007 183.524 204.925 183.41 204.866L170.932 197.802C168.423 196.388 163.244 194.574 161.388 192.046C171.379 188.304 181.67 185.416 192.15 183.413C196.868 185.766 201.376 188.52 205.623 191.645C205.719 191.718 205.829 191.77 205.947 191.795C201.729 194.013 197.594 196.396 193.557 198.98C190.28 201.084 187.094 203.288 183.916 205.55L183.866 205.45ZM138.96 183.603C148.124 180.04 157.585 177.293 167.233 175.394C164.855 180.815 161.717 185.869 157.914 190.404C154.347 191.841 150.822 193.361 147.388 194.94C140.329 198.172 133.377 201.703 126.466 205.319C125.922 203.511 127.286 201.401 129.419 197.954C132.28 193.336 135.199 188.668 137.885 184.032C138.31 184.009 138.643 183.843 139.01 183.703L138.96 183.603ZM136.202 184.743C131.468 191.952 127.093 199.253 122.335 206.371C122.24 206.551 122.213 206.759 122.259 206.957C122.304 207.156 122.418 207.332 122.581 207.453C109.926 214.396 97.5344 221.956 85.2843 229.673C85.5951 226.112 91.4283 221.121 93.2925 218.513C96.6751 213.744 99.6293 208.684 102.12 203.394C112.795 195.997 124.239 189.777 136.251 184.843L136.202 184.743ZM100.469 204.546C95.1061 213.704 88.7551 222.246 81.5298 230.02C81.4424 230.117 81.3786 230.233 81.3432 230.359C81.3077 230.485 81.3016 230.617 81.3253 230.746C81.349 230.875 81.4019 230.996 81.4799 231.101C81.5579 231.206 81.6589 231.292 81.7752 231.352L82.2738 231.603C72.225 237.98 62.2343 244.432 52.294 250.734C66.1503 233.204 82.3779 217.687 100.51 204.629L100.469 204.546ZM53.711 252.669C64.0429 246.235 74.4173 239.51 84.9081 232.852C94.876 238.007 104.243 244.25 112.838 251.466C93.6641 259.004 72.9502 261.385 53.7105 252.835L53.711 252.669ZM144.683 234.546C135.398 240.985 125.458 246.424 115.029 250.773C111.116 247.426 107.037 244.277 102.808 241.339C100.076 239.474 97.2768 237.684 94.4108 236.011C93.4222 235.442 88.4685 233.37 86.442 232.049C99.2677 223.9 112.276 215.91 125.565 208.736C136.836 213.132 147.671 218.572 157.93 224.984C153.567 228.249 149.162 231.473 144.683 234.546ZM159.482 223.716C150.57 218.029 141.185 213.121 131.431 209.046C130.257 208.596 129.141 208.006 128.108 207.288C138.075 201.942 148.347 197.187 158.871 193.045C166.68 197.606 174.589 202.033 182.456 206.502C174.673 212.17 167.14 218.047 159.482 223.716ZM207.031 191.216C207.092 191.066 207.098 190.9 207.048 190.746C206.998 190.592 206.896 190.461 206.759 190.375C202.983 187.538 198.964 185.041 194.748 182.913C206.877 180.776 219.224 180.15 231.506 181.048C223.086 183.768 214.9 187.169 207.031 191.216ZM235.372 179.837C222.411 177.387 209.115 177.278 196.115 179.514L202.179 172.642C202.23 172.578 202.272 172.508 202.305 172.434C215.233 172.761 228.064 174.777 240.47 178.43C238.754 178.866 237.063 179.352 235.372 179.837Z" fill="#3A250B"/>
</svg>
