<svg width="28" height="28" viewBox="0 0 28 28" fill="none" xmlns="http://www.w3.org/2000/svg">
<path d="M19.3125 3.3125C19.3125 4.0625 19.5625 4.70833 20.0625 5.25C20.6042 5.75 21.25 6 22 6C22.75 6 23.375 5.75 23.875 5.25C24.4167 4.70833 24.6875 4.0625 24.6875 3.3125C24.6875 2.60417 24.4167 2 23.875 1.5C23.375 0.958333 22.75 0.6875 22 0.6875C21.25 0.6875 20.6042 0.958333 20.0625 1.5C19.5625 2 19.3125 2.60417 19.3125 3.3125ZM24.6875 27.3125H20.6875V16.6875C20.6875 15.8125 20.4583 15.0208 20 14.3125C19.5417 13.5625 18.9583 13 18.25 12.625L19.375 9.1875C19.5833 8.60417 19.9167 8.14583 20.375 7.8125C20.8333 7.47917 21.3542 7.3125 21.9375 7.3125H22.0625C22.6458 7.3125 23.1667 7.47917 23.625 7.8125C24.0833 8.14583 24.4167 8.60417 24.625 9.1875L28 19.3125H24.6875V27.3125ZM14.6875 13.3125C14.1042 13.3125 13.625 13.125 13.25 12.75C12.875 12.375 12.6875 11.8958 12.6875 11.3125C12.6875 10.7708 12.875 10.3125 13.25 9.9375C13.625 9.52083 14.1042 9.3125 14.6875 9.3125C15.2292 9.3125 15.6875 9.52083 16.0625 9.9375C16.4792 10.3125 16.6875 10.7708 16.6875 11.3125C16.6875 11.8958 16.4792 12.375 16.0625 12.75C15.6875 13.125 15.2292 13.3125 14.6875 13.3125ZM5.3125 6C4.60417 6 3.97917 5.75 3.4375 5.25C2.9375 4.70833 2.6875 4.0625 2.6875 3.3125C2.6875 2.60417 2.9375 2 3.4375 1.5C3.97917 0.958333 4.60417 0.6875 5.3125 0.6875C6.0625 0.6875 6.6875 0.958333 7.1875 1.5C7.72917 2 8 2.60417 8 3.3125C8 4.0625 7.72917 4.70833 7.1875 5.25C6.6875 5.75 6.0625 6 5.3125 6ZM8 27.3125H2.6875V18H0.6875V10C0.6875 9.25 0.9375 8.625 1.4375 8.125C1.97917 7.58333 2.60417 7.3125 3.3125 7.3125H7.3125C8.0625 7.3125 8.6875 7.58333 9.1875 8.125C9.72917 8.625 10 9.25 10 10V18H8V27.3125ZM16.6875 27.3125H12.6875V22H11.3125V16.6875C11.3125 16.1458 11.5 15.6875 11.875 15.3125C12.2917 14.8958 12.7708 14.6875 13.3125 14.6875H16C16.5417 14.6875 17 14.8958 17.375 15.3125C17.7917 15.6875 18 16.1458 18 16.6875V22H16.6875V27.3125Z" fill="#65665C"/>
</svg>
