<svg width="30" height="16" viewBox="0 0 30 16" fill="none" xmlns="http://www.w3.org/2000/svg">
<path d="M27 5.3125L29.6875 7.9375L24.3125 13.3125L21.6875 10.6875L19 13.3125L16.3125 10.6875H15.875C15.5 11.7292 14.9375 12.6458 14.1875 13.4375C13.4792 14.2292 12.6042 14.8542 11.5625 15.3125C10.5625 15.7708 9.47917 16 8.3125 16C6.85417 16 5.52083 15.6458 4.3125 14.9375C3.10417 14.1875 2.125 13.2083 1.375 12C0.666667 10.7917 0.3125 9.45833 0.3125 8C0.3125 6.54167 0.666667 5.20833 1.375 4C2.125 2.79167 3.10417 1.83333 4.3125 1.125C5.52083 0.375 6.85417 0 8.3125 0C9.47917 0 10.5625 0.229167 11.5625 0.6875C12.6042 1.14583 13.4792 1.77083 14.1875 2.5625C14.9375 3.35417 15.5 4.27083 15.875 5.3125H27ZM8.3125 12C9.0625 12 9.72917 11.8333 10.3125 11.5C10.9375 11.125 11.4167 10.6458 11.75 10.0625C12.125 9.4375 12.3125 8.75 12.3125 8C12.3125 7.25 12.125 6.58333 11.75 6C11.4167 5.375 10.9375 4.89583 10.3125 4.5625C9.72917 4.1875 9.0625 4 8.3125 4C7.60417 4 6.9375 4.1875 6.3125 4.5625C5.72917 4.89583 5.25 5.375 4.875 6C4.5 6.58333 4.3125 7.25 4.3125 8C4.3125 8.75 4.5 9.4375 4.875 10.0625C5.25 10.6458 5.72917 11.125 6.3125 11.5C6.9375 11.8333 7.60417 12 8.3125 12Z" fill="#CF6F49"/>
</svg>
