<svg width="96.000000" height="96.000000" viewBox="0 0 96 96" fill="none" xmlns="http://www.w3.org/2000/svg" xmlns:xlink="http://www.w3.org/1999/xlink">
	<desc>
			Created with Pixso.
	</desc>
	<defs>
		<clipPath id="clip65_2082">
			<rect id="Frame 56/Variant3" width="96.000000" height="96.000000" fill="white" fill-opacity="0"/>
		</clipPath>
	</defs>
	<rect id="Frame 56/Variant3" width="96.000000" height="96.000000" fill="#FFFFFF" fill-opacity="0"/>
	<g clip-path="url(#clip65_2082)">
		<path id="secondary" d="M73 34L62.5 34C61.5718 34 60.6814 34.3762 60.0251 35.046C59.3687 35.7158 59 36.6243 59 37.5714L59 80.4286C59 81.3757 59.3687 82.2842 60.0251 82.954C60.6814 83.6238 61.5718 84 62.5 84L76.5 84C77.4282 84 78.3186 83.6238 78.9749 82.954C79.6313 82.2842 80 81.3757 80 80.4286L80 41.1428C80 39.2484 79.2625 37.4316 77.9497 36.092C76.637 34.7526 74.8564 34 73 34Z" fill="#69C647" fill-opacity="1.000000" fill-rule="nonzero"/>
		<path id="primary" d="M80.3999 76.8L66 76.8L66 15.6011C65.9973 15.0299 65.8589 14.4675 65.5959 13.9606C65.333 13.4535 64.9534 13.0164 64.488 12.6851C64.0264 12.3506 63.4919 12.1304 62.9287 12.0427C62.3655 11.9552 61.7893 12.0026 61.248 12.181L20.532 25.7529C19.0952 26.2297 17.8452 27.1473 16.96 28.3752C16.0745 29.6031 15.5986 31.079 15.6001 32.5928L15.6001 76.8C14.6453 76.8 13.7295 77.1794 13.0544 77.8545C12.3794 78.5297 12 79.4453 12 80.4C12 81.3549 12.3794 82.2705 13.0544 82.9456C13.7295 83.6207 14.6453 84 15.6001 84L80.3999 84C81.3547 84 82.2705 83.6207 82.9456 82.9456C83.6206 82.2705 84 81.3549 84 80.4C84 79.4453 83.6206 78.5297 82.9456 77.8545C82.2705 77.1794 81.3547 76.8 80.3999 76.8Z" fill="#323847" fill-opacity="1.000000" fill-rule="nonzero"/>
		<path id="secondary" d="M48.3333 55L33.6667 55C32.6941 55 31.7615 55.3864 31.074 56.074C30.3862 56.7616 30 57.6942 30 58.6666L30 77L52 77L52 58.6666C52 57.6942 51.6138 56.7616 50.926 56.074C50.2385 55.3864 49.3059 55 48.3333 55Z" fill="#69C647" fill-opacity="1.000000" fill-rule="nonzero"/>
	</g>
</svg>
