<svg width="96.000000" height="96.000000" viewBox="0 0 96 96" fill="none" xmlns="http://www.w3.org/2000/svg" xmlns:xlink="http://www.w3.org/1999/xlink">
	<desc>
			Created with Pixso.
	</desc>
	<defs>
		<clipPath id="clip55_3222">
			<rect id="file-5" width="96.000000" height="96.000000" fill="white" fill-opacity="0"/>
		</clipPath>
	</defs>
	<rect id="file-5" width="96.000000" height="96.000000" fill="#FFFFFF" fill-opacity="0"/>
	<g clip-path="url(#clip55_3222)">
		<path id="primary" d="M74.9849 34.644L53.9849 13.0441C53.658 12.7104 53.27 12.4464 52.8438 12.2673C52.4172 12.0881 51.9607 11.9973 51.5 12.0001L27 12.0001C25.1436 12.0001 23.363 12.7586 22.0503 14.1089C20.7375 15.4591 20 17.2905 20 19.2L20 76.8C20 78.7096 20.7375 80.5409 22.0503 81.8912C23.363 83.2414 25.1436 84 27 84L69 84C70.8564 84 72.637 83.2414 73.9497 81.8912C75.2625 80.5409 76 78.7096 76 76.8L76 37.2C76.0027 36.7263 75.9143 36.2566 75.7402 35.818C75.5659 35.3794 75.3093 34.9804 74.9849 34.644Z" fill="#323847" fill-opacity="1.000000" fill-rule="nonzero"/>
		<path id="secondary" d="M75.9753 37.7616L52 34.123C51.5439 34.0606 51.104 33.9031 50.7065 33.6598C50.3088 33.4165 49.9612 33.0923 49.6843 32.706C49.4072 32.3198 49.2061 31.8793 49.093 31.4103C48.9797 30.9414 48.9565 30.4534 49.0247 29.9749L52.4844 12C53.1638 12.1312 53.7905 12.4734 54.2834 12.9824L75.0413 34.8143C75.3943 35.2026 75.6609 35.6682 75.8225 36.1778C75.9839 36.6874 76.0361 37.2283 75.9753 37.7616ZM65.5964 66.3614C65.5964 65.3963 65.2319 64.4708 64.5833 63.7885C63.9343 63.1061 63.0544 62.7227 62.1367 62.7227L34.4597 62.7227C33.542 62.7227 32.6621 63.1061 32.0134 63.7885C31.3645 64.4708 31 65.3963 31 66.3614C31 67.3264 31.3645 68.2519 32.0134 68.9343C32.6621 69.6166 33.542 70 34.4597 70L62.1367 70C63.0544 70 63.9343 69.6166 64.5833 68.9343C65.2319 68.2519 65.5964 67.3264 65.5964 66.3614ZM65.5964 51.8068C65.5964 50.8417 65.2319 49.9162 64.5833 49.2339C63.9343 48.5515 63.0544 48.1681 62.1367 48.1681L34.4597 48.1681C33.542 48.1681 32.6621 48.5515 32.0134 49.2339C31.3645 49.9162 31 50.8417 31 51.8068C31 52.7718 31.3645 53.6973 32.0134 54.3797C32.6621 55.0621 33.542 55.4454 34.4597 55.4454L62.1367 55.4454C63.0544 55.4454 63.9343 55.0621 64.5833 54.3797C65.2319 53.6973 65.5964 52.7718 65.5964 51.8068Z" fill="#69C647" fill-opacity="1.000000" fill-rule="nonzero"/>
	</g>
</svg>
