<svg width="96.000000" height="96.000000" viewBox="0 0 96 96" fill="none" xmlns="http://www.w3.org/2000/svg" xmlns:xlink="http://www.w3.org/1999/xlink">
	<desc>
			Created with Pixso.
	</desc>
	<defs>
		<clipPath id="clip55_3110">
			<rect id="Frame 56/Variant3" width="96.000000" height="96.000000" fill="white" fill-opacity="0"/>
		</clipPath>
	</defs>
	<rect id="Frame 56/Variant3" width="96.000000" height="96.000000" fill="#FFFFFF" fill-opacity="0"/>
	<g clip-path="url(#clip55_3110)">
		<path id="primary" d="M81.92 39.36L79.2 38.6801L76.6801 29.76C76.1953 28.0983 75.1848 26.6385 73.8 25.6C72.4153 24.5614 70.731 24 69 24L56 24C56 21.8783 55.1571 19.8434 53.6569 18.3431C52.1566 16.8429 50.1217 16 48 16L16 16C13.8783 16 11.8434 16.8429 10.3431 18.3431C8.8429 19.8434 8 21.8783 8 24L8 64C8 66.1217 8.8429 68.1566 10.3431 69.6569C11.8434 71.1571 13.8783 72 16 72L80 72C82.1217 72 84.1566 71.1571 85.6569 69.6569C87.1571 68.1566 88 66.1217 88 64L88 47.12C87.9987 45.3334 87.3992 43.5986 86.2974 42.1923C85.1954 40.7859 83.6544 39.7888 81.92 39.36Z" fill="#323847" fill-opacity="1.000000" fill-rule="nonzero"/>
		<path id="secondary" d="M40 68C40 70.3734 39.2963 72.6935 37.9777 74.6669C36.6591 76.6403 34.7849 78.1783 32.5922 79.0865C30.3995 79.9948 27.9867 80.2324 25.6589 79.7694C23.3312 79.3064 21.193 78.1636 19.5148 76.4852C17.8365 74.807 16.6936 72.6688 16.2306 70.3411C15.7676 68.0133 16.0052 65.6005 16.9135 63.4078C17.8217 61.2151 19.3597 59.3409 21.3331 58.0223C23.3065 56.7037 25.6266 56 28 56C31.1826 56 34.2349 57.2643 36.4852 59.5148C38.7357 61.7651 40 64.8174 40 68ZM68 56C65.6266 56 63.3065 56.7037 61.3331 58.0223C59.3597 59.3409 57.8217 61.2151 56.9135 63.4078C56.0052 65.6005 55.7676 68.0133 56.2306 70.3411C56.6936 72.6688 57.8365 74.807 59.5148 76.4852C61.193 78.1636 63.3312 79.3064 65.6589 79.7694C67.9867 80.2324 70.3995 79.9948 72.5922 79.0865C74.7849 78.1783 76.6591 76.6403 77.9777 74.6669C79.2963 72.6935 80 70.3734 80 68C80 64.8174 78.7357 61.7651 76.4852 59.5148C74.2349 57.2643 71.1826 56 68 56ZM44 28L20 28C18.9391 28 17.9218 28.4214 17.1716 29.1716C16.4214 29.9218 16 30.9391 16 32C16 33.0609 16.4214 34.0782 17.1716 34.8284C17.9218 35.5786 18.9391 36 20 36L44 36C45.0609 36 46.0782 35.5786 46.8284 34.8284C47.5786 34.0782 48 33.0609 48 32C48 30.9391 47.5786 29.9218 46.8284 29.1716C46.0782 28.4214 45.0609 28 44 28Z" fill="#69C647" fill-opacity="1.000000" fill-rule="nonzero"/>
	</g>
</svg>
