<svg width="96.000000" height="96.000000" viewBox="0 0 96 96" fill="none" xmlns="http://www.w3.org/2000/svg" xmlns:xlink="http://www.w3.org/1999/xlink">
	<desc>
			Created with Pixso.
	</desc>
	<defs>
		<clipPath id="clip55_3284">
			<rect id="conversation" width="96.000000" height="96.000000" fill="white" fill-opacity="0"/>
		</clipPath>
	</defs>
	<rect id="conversation" width="96.000000" height="96.000000" fill="#FFFFFF" fill-opacity="0"/>
	<g clip-path="url(#clip55_3284)">
		<path id="secondary" d="M84.8896 80.2841L81.2207 66.9161C83.6692 62.8604 84.9407 58.1893 84.8896 53.4367C84.7859 48.8043 83.5103 44.2762 81.1851 40.2847C78.8599 36.2932 75.5623 32.9715 71.6077 30.6369C71.001 30.2218 70.2852 30 69.553 30C68.8206 30 68.105 30.2218 67.4983 30.6369C66.9421 31.0587 66.5161 31.6316 66.2693 32.289C66.0225 32.9464 65.9651 33.6611 66.104 34.3502C66.4309 35.7361 66.5789 37.159 66.5442 38.5834C66.5442 49.7234 55.8306 59.0067 42.6953 59.0067C38.9041 58.9852 35.1577 58.1763 31.688 56.6302C31.22 56.4204 30.7139 56.312 30.2019 56.312C29.6902 56.312 29.1841 56.4204 28.7161 56.6302L26.1843 57.6328C25.3252 58.0175 24.6448 58.721 24.283 59.5984C23.9211 60.4757 23.9058 61.4601 24.2397 62.3487C26.6934 68.119 30.804 73.0099 36.0378 76.3868C41.272 79.7637 47.3879 81.4708 53.5923 81.2867C58.0188 81.3252 62.4128 80.519 66.5442 78.9102L79.9731 84.7029C80.3684 84.8752 80.7908 84.9758 81.2207 85C82.1125 84.9987 82.9734 84.6687 83.6421 84.0717C84.1851 83.6261 84.5908 83.033 84.8118 82.362C85.0327 81.691 85.0598 80.9701 84.8896 80.2841Z" fill="#69C647" fill-opacity="1.000000" fill-rule="nonzero"/>
		<path id="primary" d="M73.333 33.125C70.3682 20.3662 57.3977 11 42.5 11C25.1194 11 11 23.39 11 38.6562C11.0151 43.3974 12.377 48.0377 14.9282 52.0419L11.2224 65.3169C11.0483 65.9738 11.0601 66.6658 11.2561 67.3165C11.4524 67.9672 11.8254 68.5513 12.3342 69.0044C12.9797 69.6076 13.821 69.9608 14.7058 70C15.2026 69.9991 15.6941 69.8987 16.1511 69.705L29.7146 63.9525C33.7947 65.5141 38.1287 66.3141 42.5 66.3125C59.8806 66.3125 74 53.9225 74 38.6562C74.0024 36.7925 73.7786 34.9353 73.333 33.125Z" fill="#323847" fill-opacity="1.000000" fill-rule="nonzero"/>
	</g>
</svg>
