<svg width="96.000000" height="96.000000" viewBox="0 0 96 96" fill="none" xmlns="http://www.w3.org/2000/svg" xmlns:xlink="http://www.w3.org/1999/xlink">
	<desc>
			Created with Pixso.
	</desc>
	<defs>
		<clipPath id="clip55_3048">
			<rect id="headset alt" width="96.000000" height="96.000000" fill="white" fill-opacity="0"/>
		</clipPath>
	</defs>
	<rect id="headset alt" width="96.000000" height="96.000000" fill="#FFFFFF" fill-opacity="0"/>
	<g clip-path="url(#clip55_3048)">
		<path id="secondary" d="M59.7808 81L47.7131 81C46.7283 81 45.7839 80.6207 45.0876 79.9456C44.3911 79.2705 44 78.3547 44 77.4C44 76.4452 44.3911 75.5295 45.0876 74.8544C45.7839 74.1793 46.7283 73.8 47.7131 73.8L59.7808 73.8C61.303 73.8 62.5654 72.144 62.5654 70.2L62.5654 66.6C62.5654 65.6453 62.9568 64.7295 63.6531 64.0544C64.3494 63.3793 65.2939 63 66.2786 63C67.2634 63 68.2078 63.3793 68.9043 64.0544C69.6006 64.7295 69.9917 65.6453 69.9917 66.6L69.9917 70.2C70.1028 72.9419 69.0918 75.6154 67.1794 77.6381C65.2671 79.6609 62.6077 80.8691 59.7808 81Z" fill="#69C647" fill-opacity="1.000000" fill-rule="nonzero"/>
		<path id="primary" d="M73.1052 22.1046C68.3115 16.8389 61.9839 13.2122 55.0166 11.7371C48.0493 10.2618 40.7942 11.0128 34.2771 13.8838C27.7598 16.7548 22.3096 21.6006 18.6965 27.7366C15.0837 33.8726 13.4907 40.9884 14.1428 48.0786L14.8062 55.4471C14.8545 59.3301 16.4341 63.0369 19.2012 65.7618C21.9683 68.4869 25.6995 70.01 29.5835 70L33.2688 70C35.2234 70 37.0981 69.2236 38.4802 67.8418C39.8625 66.46 40.6389 64.5857 40.6389 62.6315L40.6389 44.2102C40.6389 42.256 39.8625 40.3817 38.4802 38.9999C37.0981 37.618 35.2234 36.8417 33.2688 36.8417L29.5835 36.8417C26.9846 36.8798 24.4419 37.6042 22.2131 38.9417C23.5801 33.1202 26.8689 27.929 31.5493 24.2057C36.2295 20.4824 42.0283 18.4443 48.0093 18.4204C53.9905 18.4443 59.7891 20.4824 64.4695 24.2057C69.1497 27.929 72.4387 33.1202 73.8054 38.9417C71.5769 37.6042 69.0342 36.8798 66.4351 36.8417L62.75 36.8417C60.7952 36.8417 58.9207 37.618 57.5383 38.9999C56.1562 40.3817 55.3796 42.256 55.3796 44.2102L55.3796 62.6315C55.3796 64.5857 56.1562 66.46 57.5383 67.8418C58.9207 69.2236 60.7952 70 62.75 70L66.4351 70C70.2693 70.0017 73.9531 68.5099 76.7051 65.8411C79.457 63.1722 81.0608 59.5364 81.1758 55.7051L81.8391 48.3365C82.302 43.5964 81.7637 38.812 80.259 34.2932C78.7544 29.7743 76.3174 25.6218 73.1052 22.1046Z" fill="#323847" fill-opacity="1.000000" fill-rule="nonzero"/>
	</g>
</svg>
