<svg width="96.000000" height="96.000000" viewBox="0 0 96 96" fill="none" xmlns="http://www.w3.org/2000/svg" xmlns:xlink="http://www.w3.org/1999/xlink">
	<desc>
			Created with Pixso.
	</desc>
	<defs>
		<clipPath id="clip55_3174">
			<rect id="invoice dollar" width="96.000000" height="96.000000" fill="white" fill-opacity="0"/>
		</clipPath>
	</defs>
	<rect id="invoice dollar" width="96.000000" height="96.000000" fill="#FFFFFF" fill-opacity="0"/>
	<g clip-path="url(#clip55_3174)">
		<path id="primary" d="M51.5 41C51.505 36.0409 53.2649 31.2437 56.4679 27.4578C59.6708 23.6718 64.1104 21.1415 69 20.3149L69 20C69 18.1434 68.2625 16.363 66.9497 15.0503C65.637 13.7375 63.8566 13 62 13L20 13C18.1434 13 16.363 13.7375 15.0503 15.0503C13.7375 16.363 13 18.1434 13 20L13 76C13 77.8566 13.7375 79.637 15.0503 80.9497C16.363 82.2625 18.1434 83 20 83L62 83C63.8566 83 65.637 82.2625 66.9497 80.9497C68.2625 79.637 69 77.8566 69 76L69 61.6851C64.1104 60.8585 59.6708 58.3282 56.4679 54.5422C53.2649 50.7563 51.505 45.9591 51.5 41Z" fill="#323847" fill-opacity="1.000000" fill-rule="nonzero"/>
		<path id="secondary" d="M45 51.5C45 50.5718 44.6312 49.6815 43.9749 49.0251C43.3185 48.3688 42.4282 48 41.5 48L27.5 48C26.5718 48 25.6815 48.3688 25.0251 49.0251C24.3688 49.6815 24 50.5718 24 51.5C24 52.4282 24.3688 53.3185 25.0251 53.9749C25.6815 54.6312 26.5718 55 27.5 55L41.5 55C42.4282 55 43.3185 54.6312 43.9749 53.9749C44.6312 53.3185 45 52.4282 45 51.5ZM52 65.5C52 64.5718 51.6312 63.6815 50.9749 63.0251C50.3185 62.3688 49.4282 62 48.5 62L27.5 62C26.5718 62 25.6815 62.3688 25.0251 63.0251C24.3688 63.6815 24 64.5718 24 65.5C24 66.4282 24.3688 67.3185 25.0251 67.9749C25.6815 68.6312 26.5718 69 27.5 69L48.5 69C49.4282 69 50.3185 68.6312 50.9749 67.9749C51.6312 67.3185 52 66.4282 52 65.5Z" fill="#69C647" fill-opacity="1.000000" fill-rule="nonzero"/>
		<path id="icon" d="M67.9783 27.7927L66.1121 28.8424L77.2606 35.906L82.6031 32.7057C82.3517 32.5073 82.0834 32.3271 81.7996 32.1675L74.0217 27.7927C72.1426 26.7357 69.8574 26.7357 67.9783 27.7927ZM60.2004 32.1675L64.0562 29.9988C64.1373 30.2549 64.3049 30.4844 64.5477 30.6382L74.9998 37.2604L73.5065 38.1549L73.5002 38.1586C71.9427 39.1047 70.0037 39.1323 68.4205 38.2307L59.1276 32.9382C59.1259 32.9373 59.1241 32.9363 59.1224 32.9353C59.4502 32.6448 59.8107 32.3867 60.2004 32.1675ZM72.1666 54.8354L72.1666 41.1396C73.0475 40.9845 73.9061 40.6665 74.6975 40.1863L74.7008 40.1843L84.0386 34.5907C84.0803 34.5657 84.12 34.5385 84.1576 34.5092C84.7 35.4542 85 36.5422 85 37.6743L85 44.4351C85 46.7229 83.7749 48.8309 81.7996 49.942L74.0217 54.3168C73.4313 54.6488 72.8008 54.8766 72.1554 55C72.1628 54.9462 72.1666 54.8912 72.1666 54.8354ZM57.7001 34.7712C57.2478 35.6531 57 36.6455 57 37.6743L57 44.4351C57 46.7229 58.2251 48.8309 60.2004 49.942L67.9783 54.3168C68.5687 54.6488 69.1992 54.8766 69.8446 55C69.8372 54.9462 69.8334 54.8912 69.8334 54.8354L69.8334 41.1722C68.9484 41.0419 68.0811 40.7478 67.2766 40.2897L57.9835 34.9972C57.8752 34.9354 57.7804 34.8589 57.7001 34.7712Z" fill="#69C647" fill-opacity="1.000000" fill-rule="evenodd"/>
	</g>
</svg>
