<svg width="96.000000" height="96.000000" viewBox="0 0 96 96" fill="none" xmlns="http://www.w3.org/2000/svg" xmlns:xlink="http://www.w3.org/1999/xlink">
	<desc>
			Created with Pixso.
	</desc>
	<defs>
		<clipPath id="clip55_4461">
			<rect id="Frame 56/iconixto/solid/Property 34" width="96.000000" height="96.000000" fill="white" fill-opacity="0"/>
		</clipPath>
	</defs>
	<rect id="Frame 56/iconixto/solid/Property 34" width="96.000000" height="96.000000" fill="#FFFFFF" fill-opacity="0"/>
	<g clip-path="url(#clip55_4461)">
		<path id="Vector" d="M28.4404 17.1058L30.2651 16.1022C32.9368 14.6326 36.1853 14.6326 38.8567 16.1022L49.9136 22.1841C50.0481 22.2582 50.1804 22.3353 50.3098 22.4155L43.4734 26.4204L28.4404 17.1058ZM19.2083 22.1841L23.9553 19.5729C24.1438 20.0452 24.4807 20.464 24.9487 20.754L38.6523 29.2448L37.7021 29.8014L37.689 29.8092C35.7302 30.9728 33.2917 31.0066 31.3008 29.8978L18.3796 22.7013C18.644 22.5151 18.9207 22.3424 19.2083 22.1841ZM47.8066 50.5853C47.6313 48.8555 46.45 47.3525 44.7354 46.7332L37.0488 43.957L37.0488 35.3264C38.1577 35.0645 39.2354 34.6348 40.2419 34.0377L40.249 34.0336L53.519 26.2596C53.5647 26.233 53.6091 26.2051 53.6521 26.176C54.178 27.3062 54.4634 28.5526 54.4634 29.8401L54.4634 39.2391C54.4634 42.0825 53.0715 44.726 50.7703 46.3583C50.9556 46.619 51.1953 46.8484 51.4854 47.0281L65.189 55.5189L64.2388 56.0756L64.2256 56.0834C62.2668 57.2469 59.8284 57.2808 57.8374 56.172L47.8066 50.5853ZM14.6584 29.8401C14.6584 28.7079 14.8792 27.6074 15.29 26.5898C15.4009 26.6799 15.5212 26.7616 15.6504 26.8336L28.8613 34.1915C29.8794 34.7584 30.9629 35.1578 32.0732 35.3901L32.0732 42.1599L30.4304 41.5665C29.3508 41.1766 28.1614 41.1766 27.0818 41.5665L17.0229 45.1997C15.5256 43.6034 14.6584 41.4835 14.6584 39.2391L14.6584 29.8401ZM54.9771 43.38L56.8018 42.3763C59.4734 40.9067 62.7217 40.9067 65.3933 42.3763L76.4502 48.4583C76.5847 48.5322 76.7168 48.6095 76.8464 48.6897L70.01 52.6946L54.9771 43.38ZM15.5559 49.7887L27.373 45.6157C28.2646 45.3008 29.2476 45.3008 30.1392 45.6157L41.9563 49.7887C43.4937 50.3317 44.5122 51.7155 44.5122 53.2616L44.5122 63.6742C44.5122 70.9806 34.7314 77.1357 30.582 79.4182C29.4529 80.0393 28.0786 80.0084 26.9758 79.3469C22.853 76.8743 13 70.2743 13 63.6742L13 53.2616C13 51.7155 14.0186 50.3317 15.5559 49.7887ZM63.5854 79.9723L63.5854 61.6006C64.6943 61.3386 65.772 60.9089 66.7786 60.3119L66.7856 60.3076L80.0557 52.5338C80.1013 52.5071 80.1455 52.4792 80.1887 52.4502C80.7146 53.5803 81 54.8268 81 56.1141L81 65.5133C81 68.6938 79.2583 71.6245 76.4502 73.1692L65.3933 79.2512C64.8137 79.5699 64.2073 79.8196 63.5852 80L63.5854 79.9723ZM44.5605 72.3883C46.5078 69.8099 47.8293 66.9469 47.8293 63.9247L47.8293 56.2502L55.3979 60.4657C56.416 61.0326 57.4995 61.432 58.6099 61.6643L58.6099 79.9723L58.6099 80C57.988 79.8196 57.3813 79.5699 56.8018 79.2512L45.7449 73.1692C45.3254 72.9385 44.9299 72.677 44.5605 72.3883Z" fill="#323847" fill-opacity="1.000000" fill-rule="evenodd"/>
		<path id="Vector" d="M34.2529 59L28.5962 64.6569C27.8152 65.4379 26.5488 65.4379 25.7678 64.6569L24 62.8892" stroke="#69C647" stroke-opacity="1.000000" stroke-width="3.000000" stroke-linecap="round"/>
	</g>
</svg>
