<svg width="96.000000" height="96.000000" viewBox="0 0 96 96" fill="none" xmlns="http://www.w3.org/2000/svg" xmlns:xlink="http://www.w3.org/1999/xlink">
	<desc>
			Created with Pixso.
	</desc>
	<defs>
		<clipPath id="clip55_3366">
			<rect id="package alt 2" width="96.000000" height="96.000000" fill="white" fill-opacity="0"/>
		</clipPath>
	</defs>
	<rect id="package alt 2" width="96.000000" height="96.000000" fill="#FFFFFF" fill-opacity="0"/>
	<g clip-path="url(#clip55_3366)">
		<path id="primary" d="M81 38.1L81 74.4C81 76.1504 80.3047 77.8292 79.0669 79.0669C77.8291 80.3047 76.1504 81 74.3999 81L21.6001 81C19.8496 81 18.1709 80.3047 16.9331 79.0669C15.6953 77.8292 15 76.1504 15 74.4L15 38.1L81 38.1ZM80.043 32.457L64.5 16.9141C63.2625 15.6866 61.5898 14.9987 59.8469 15L36.1531 15C34.4102 14.9987 32.7375 15.6866 31.5 16.9141L15.957 32.457C15.6511 32.7654 15.4092 33.1311 15.2451 33.5331C15.0808 33.9352 14.9976 34.3657 15 34.8L81 34.8C81.0024 34.3657 80.9192 33.9352 80.7549 33.5331C80.5908 33.1311 80.3489 32.7654 80.043 32.457Z" fill="#323847" fill-opacity="1.000000" fill-rule="nonzero"/>
		<path id="secondary" d="M51 15L51 51.6666C51 52.5508 50.6838 53.3986 50.1213 54.0237C49.5586 54.6488 48.7957 55 48 55C47.2043 55 46.4414 54.6488 45.8787 54.0237C45.3162 53.3986 45 52.5508 45 51.6666L45 15L51 15Z" fill="#69C647" fill-opacity="1.000000" fill-rule="nonzero"/>
	</g>
</svg>
