<svg width="96.000000" height="96.000000" viewBox="0 0 96 96" fill="none" xmlns="http://www.w3.org/2000/svg" xmlns:xlink="http://www.w3.org/1999/xlink">
	<desc>
			Created with Pixso.
	</desc>
	<defs>
		<clipPath id="clip55_3326">
			<rect id="Frame 59/clipboard edit left-2" width="96.000000" height="96.000000" fill="white" fill-opacity="0"/>
		</clipPath>
	</defs>
	<rect id="Frame 59/clipboard edit left-2" width="96.000000" height="96.000000" fill="#FFFFFF" fill-opacity="0"/>
	<g clip-path="url(#clip55_3326)">
		<path id="primary" d="M34 13L76 13C79.866 13 83 16.134 83 20L83 76C83 79.866 79.866 83 76 83L34 83C30.134 83 27 79.866 27 76L27 20C27 16.134 30.134 13 34 13Z" fill="#323847" fill-opacity="1.000000" fill-rule="evenodd"/>
		<path id="secondary" d="M69 13L40.9928 13L40.9928 20C40.9928 21.8565 41.7305 23.637 43.0436 24.9497C44.3566 26.2625 46.1376 27 47.9945 27L61.9982 27C63.8552 27 65.6361 26.2625 66.9492 24.9497C68.2623 23.637 69 21.8565 69 20L69 13ZM23.8033 35.015L46.9792 58.15C47.619 58.8207 47.9817 59.7083 47.9945 60.6349L47.9945 65.4999C47.9945 66.4282 47.6257 67.3185 46.9691 67.9748C46.3126 68.6312 45.4221 68.9999 44.4937 68.9999L39.6274 68.9999C39.1666 69.0026 38.71 68.9143 38.2833 68.7401C37.8568 68.566 37.4689 68.3093 37.1417 67.9849L14.0007 44.815C13.3593 44.1607 13 43.2811 13 42.365C13 41.4488 13.3593 40.5692 14.0007 39.915L18.902 35.015C19.5564 34.3737 20.4363 34.0145 21.3527 34.0145C22.269 34.0145 23.1489 34.3737 23.8033 35.015Z" fill="#69C647" fill-opacity="1.000000" fill-rule="nonzero"/>
	</g>
</svg>
